<?xml version="1.0" standalone="no"?>
<!DOCTYPE svg PUBLIC "-//W3C//DTD SVG 1.1//EN" "http://www.w3.org/Graphics/SVG/1.1/DTD/svg11.dtd" >
<svg xmlns="http://www.w3.org/2000/svg">
<metadata></metadata>
<defs>
<font id="fs_albert_proregular" horiz-adv-x="1126" >
<font-face units-per-em="2048" ascent="1577" descent="-471" />
<missing-glyph horiz-adv-x="475" />
<glyph unicode="&#xfb01;" horiz-adv-x="1040" d="M41 897v61q0 17 7 24t24 7h116v39q0 183 78 299q101 150 318 150q156 0 243 -35q21 -9 25.5 -17.5t-0.5 -25.5l-18 -70q-8 -28 -41 -18q-86 28 -197 28q-234 0 -234 -303v-47h504q39 0 39 -41v-905q0 -43 -41 -43h-92q-41 0 -41 43v823h-369v-823q0 -43 -40 -43h-93 q-41 0 -41 43v823h-116q-17 0 -24 7t-7 24z" />
<glyph unicode="&#xfb02;" horiz-adv-x="1081" d="M41 897v61q0 17 7 24t24 7h116v39q0 108 14.5 179t51.5 128q92 142 303 142q124 0 252 -39l94 18q41 7 41 -33v-1380q0 -43 -41 -43h-92q-41 0 -41 43v1270q-35 10 -94.5 18t-102.5 8q-53 0 -91 -14.5t-60.5 -38.5t-35 -63t-17 -79.5t-4.5 -96.5v-58h229q17 0 24 -7 t7 -24v-61q0 -17 -7 -24t-24 -7h-232v-823q0 -43 -40 -43h-93q-41 0 -41 43v823h-116q-17 0 -24 7t-7 24z" />
<glyph unicode="&#xfb03;" horiz-adv-x="1634" d="M41 897v61q0 17 7 24t24 7h116v27q0 72 9 155q15 137 98 212t225 75q92 0 150 -24q21 -9 25 -17.5t-1 -25.5l-20 -70q-8 -28 -41 -18q-58 16 -103 16q-93 0 -130.5 -62.5t-37.5 -191.5v-76h420v39q0 183 78 299q101 150 318 150q156 0 243 -35q21 -9 25.5 -17.5 t-0.5 -25.5l-19 -70q-8 -28 -41 -18q-86 28 -196 28q-234 0 -234 -303v-47h504q39 0 39 -41v-905q0 -43 -41 -43h-92q-41 0 -41 43v823h-369v-823q0 -43 -41 -43h-92q-41 0 -41 43v823h-420v-823q0 -43 -40 -43h-93q-41 0 -41 43v823h-116q-17 0 -24 7t-7 24z" />
<glyph unicode="&#xfb04;" horiz-adv-x="1675" d="M41 897v61q0 17 7 24t24 7h116v27q0 72 9 155q15 137 98 212t225 75q92 0 150 -24q21 -9 25 -17.5t-1 -25.5l-20 -70q-8 -28 -41 -18q-58 16 -103 16q-93 0 -130.5 -62.5t-37.5 -191.5v-76h420v39q0 108 14.5 179t51.5 128q92 142 303 142q124 0 252 -39l94 18 q41 7 41 -33v-1380q0 -43 -41 -43h-92q-41 0 -41 43v1270q-35 10 -94.5 18t-102.5 8q-65 0 -108 -20.5t-64.5 -63t-29 -90.5t-7.5 -118v-58h230q17 0 24 -7t7 -24v-61q0 -17 -7 -24t-24 -7h-232v-823q0 -43 -41 -43h-92q-41 0 -41 43v823h-420v-823q0 -43 -40 -43h-93 q-41 0 -41 43v823h-116q-17 0 -24 7t-7 24z" />
<glyph horiz-adv-x="0" />
<glyph horiz-adv-x="0" />
<glyph horiz-adv-x="682" />
<glyph unicode="&#xd;" horiz-adv-x="475" />
<glyph unicode=" "  horiz-adv-x="475" />
<glyph unicode="&#x09;" horiz-adv-x="475" />
<glyph unicode="&#xa0;" horiz-adv-x="475" />
<glyph unicode="!" horiz-adv-x="505" d="M135 90q0 53 35 83t84 30q47 0 82 -30t35 -81q0 -53 -35 -82.5t-84 -29.5q-48 0 -82.5 29.5t-34.5 80.5zM166 1370q0 41 39 41h102q22 0 31.5 -9t9.5 -32l-20 -1030q0 -19 -8 -27t-27 -8h-72q-21 0 -29 7.5t-8 27.5z" />
<glyph unicode="&#x22;" horiz-adv-x="651" d="M80 1399q-2 20 5 28.5t28 8.5h102q35 0 33 -37l-12 -295q0 -37 -39 -37h-68q-20 0 -28.5 8.5t-8.5 28.5zM403 1399q-2 20 5 28.5t28 8.5h103q34 0 32 -37l-12 -295q0 -37 -39 -37h-67q-20 0 -28.5 8.5t-8.5 28.5z" />
<glyph unicode="#" d="M41 438l12 78q3 18 11 24.5t32 6.5h166l43 280h-170q-22 0 -28 7.5t-3 23.5l13 78q3 18 11 24.5t32 6.5h172l59 403q3 23 12.5 32t36.5 9h82q42 0 35 -41l-61 -403h217l63 403q3 23 12.5 32t36.5 9h82q42 0 35 -41l-59 -403h170q22 0 27.5 -7.5t2.5 -23.5l-12 -78 q-3 -18 -11 -24.5t-32 -6.5h-170l-43 -280h172q22 0 28 -7.5t3 -23.5l-12 -78q-3 -18 -11 -24t-32 -6h-172l-58 -367q-3 -23 -12.5 -32t-36.5 -9h-82q-42 0 -35 41l62 367h-226l-61 -367q-3 -23 -12.5 -32t-36.5 -9h-84q-42 0 -35 41l59 367h-161q-22 0 -28 7t-3 23z M428 547h221l45 280h-221z" />
<glyph unicode="$" d="M154 1073q0 78 31 143.5t84 109.5t119.5 71t141.5 35v170q0 28 29 28h51q29 0 29 -28v-168q162 -6 283 -64q33 -16 22 -49l-31 -82q-12 -36 -53 -18q-114 51 -221 57v-469l90 -47q66 -35 113.5 -69.5t86.5 -80t59 -103t20 -126.5q0 -164 -103 -266.5t-266 -128.5v-166 q0 -29 -29 -29h-51q-29 0 -29 29v158q-180 0 -342 57q-36 11 -26 51l26 92q11 38 54 21q146 -60 288 -60v518l-151 82q-225 121 -225 332zM350 1090q0 -74 39.5 -121.5t120.5 -89.5l20 -13v408q-78 -15 -129 -60.5t-51 -123.5zM639 154q80 22 130 76t50 139q0 81 -44 133 t-136 100v-448z" />
<glyph unicode="%" horiz-adv-x="1552" d="M102 1057q0 165 65.5 266.5t194.5 101.5t195 -101.5t66 -266.5t-66 -267t-195 -102t-194.5 101.5t-65.5 267.5zM242 1057q0 -122 29.5 -191t90.5 -69t91 69t30 191t-30 191t-91 69t-90.5 -69t-29.5 -191zM272 27l854 1370q15 25 28 32t42 7h57q59 0 29 -47l-854 -1371 q-13 -23 -27 -30.5t-43 -7.5h-59q-55 0 -27 47zM930 360q0 166 65.5 267.5t194.5 101.5t194.5 -101.5t65.5 -267.5t-65.5 -267t-194.5 -101t-194.5 101t-65.5 267zM1069 360q0 -122 30 -191t91 -69t91 69t30 191t-30 191.5t-91 69.5t-91 -69.5t-30 -191.5z" />
<glyph unicode="&#x26;" horiz-adv-x="1398" d="M78 369q0 62 19.5 117.5t47 97t76.5 85.5t90 73.5t105 70.5l-64 76q-57 67 -85.5 126.5t-28.5 131.5q0 123 93 206t230 83q139 0 229.5 -77.5t90.5 -207.5q0 -52 -19.5 -100.5t-57.5 -92.5t-76.5 -77.5t-92.5 -73.5l354 -418q64 90 107 208t53 247q1 18 8 24t23 6h86 q28 0 28 -28q0 -138 -59 -298.5t-148 -264.5q106 -104 263 -154q21 -7 25 -18.5t-3 -28.5l-24 -70q-7 -19 -19.5 -24t-32.5 0q-87 19 -172 65.5t-151 112.5q-199 -186 -469 -186q-183 0 -304.5 106.5t-121.5 282.5zM264 387q0 -118 78.5 -188t194.5 -70q200 0 340 137 l-377 447q-112 -77 -174 -154.5t-62 -171.5zM412 1151q0 -80 88 -182l53 -62q78 58 123 116t45 124q0 72 -42.5 114t-113.5 42q-67 0 -110 -41.5t-43 -110.5z" />
<glyph unicode="'" horiz-adv-x="327" d="M80 1399q-2 20 5 28.5t28 8.5h102q35 0 33 -37l-12 -295q0 -37 -39 -37h-68q-20 0 -28.5 8.5t-8.5 28.5z" />
<glyph unicode="(" horiz-adv-x="665" d="M186 614q0 417 322 840q20 25 45 10l57 -34q11 -6 12.5 -14.5t-1 -14.5t-9.5 -17q-135 -204 -194.5 -383t-59.5 -413q0 -216 61.5 -398t186.5 -352q19 -27 -10 -49l-49 -33q-17 -11 -27.5 -8.5t-23.5 19.5q-310 408 -310 847z" />
<glyph unicode=")" horiz-adv-x="663" d="M49 -168q137 205 197.5 385.5t60.5 411.5q0 216 -59 391.5t-187 355.5q-22 31 7 51l51 35q29 20 49 -6q309 -410 309 -852q0 -421 -319 -840q-19 -25 -45 -10l-58 35q-24 14 -6 43z" />
<glyph unicode="*" horiz-adv-x="681" d="M70 1206l32 103q8 32 41 12l170 -104l-39 190q-4 20 -4 29q0 20 25 20h88q18 0 24.5 -4.5t6.5 -15.5q0 -8 -6 -35l-37 -184l161 98q13 8 21.5 10.5t17 -2t13.5 -20.5l26 -84q7 -22 2 -31t-26 -12l-187 -23l138 -139q23 -25 -9 -51l-57 -45q-36 -24 -49 10l-82 194 l-78 -196q-15 -35 -43 -13l-72 52q-27 22 0 49l142 141l-201 21q-26 3 -18 30z" />
<glyph unicode="+" d="M117 494v86q0 18 8.5 25t28.5 7h329v355q0 34 37 34h88q37 0 37 -34v-355h328q20 0 28.5 -7t8.5 -25v-86q0 -33 -37 -33h-328v-350q0 -35 -37 -35h-88q-37 0 -37 35v350h-329q-37 0 -37 33z" />
<glyph unicode="," horiz-adv-x="411" d="M100 -227q-17 20 4 37q72 68 72 135q0 27 -35 72.5t-35 76.5q0 47 32 78t79 31q52 0 85.5 -43t33.5 -97q0 -90 -51.5 -181.5t-122.5 -133.5q-27 -15 -41 2z" />
<glyph unicode="-" horiz-adv-x="567" d="M84 496v79q0 23 8.5 32t30.5 9h321q22 0 30.5 -9t8.5 -32v-79q0 -22 -8.5 -30.5t-30.5 -8.5h-321q-22 0 -30.5 8.5t-8.5 30.5z" />
<glyph unicode="." horiz-adv-x="417" d="M102 90q0 53 35 83t84 30q47 0 82 -30t35 -81q0 -53 -35 -82.5t-84 -29.5q-48 0 -82.5 29.5t-34.5 80.5z" />
<glyph unicode="/" horiz-adv-x="669" d="M64 -10q-5 10 2 30l413 1381q6 21 16 28t31 7h82q23 0 28.5 -10.5t-1.5 -30.5l-410 -1381q-6 -21 -16 -27.5t-31 -6.5h-86q-23 0 -28 10z" />
<glyph unicode="0" d="M78 705q0 102 15 200.5t51.5 196t91 170.5t140 118.5t191.5 45.5q77 0 143 -23t115 -63.5t87.5 -96.5t63.5 -119.5t42 -136.5t24 -143t7 -143q0 -103 -14.5 -201.5t-50.5 -196t-90.5 -170.5t-140 -118t-192.5 -45t-192 44.5t-138.5 116t-89 168.5t-49.5 194.5t-14 201.5z M276 709q0 -79 7 -152.5t27 -151.5t51 -134.5t83 -93t119 -36.5t119 36.5t83 93.5t51 135t27 151t7 152t-7.5 153t-27.5 151.5t-51 134t-82.5 92.5t-116.5 36q-67 0 -119 -36.5t-83.5 -93.5t-51.5 -134.5t-27.5 -151t-7.5 -151.5z" />
<glyph unicode="1" d="M145.5 1129.5q2.5 13.5 22.5 25.5l369 229q46 27 86 27h69q39 0 39 -41v-1329q0 -41 -39 -41h-104q-22 0 -31.5 9t-9.5 32v1167l-301 -186q-38 -23 -56 14l-36 62q-11 18 -8.5 31.5z" />
<glyph unicode="2" d="M115 33v76q0 41 30 71q49 52 161.5 163t168.5 171q157 168 233 292.5t76 235.5q0 107 -68 169.5t-177 62.5q-144 0 -293 -86q-34 -17 -49 18l-31 66q-15 35 16 55q174 109 383 109q178 0 297 -99.5t119 -275.5q0 -152 -89 -297t-292 -356q-41 -43 -248 -250h590 q21 0 30 -7.5t9 -25.5v-92q0 -18 -9 -25.5t-30 -7.5h-788q-21 0 -30 7.5t-9 25.5z" />
<glyph unicode="3" d="M125 100l29 74q11 33 57 12q123 -55 266 -55q133 0 215 76.5t82 204.5q0 93 -47.5 156.5t-121 91.5t-167.5 28h-57q-20 0 -28.5 8t-8.5 27v72q0 19 8.5 26.5t28.5 7.5h55q132 0 208.5 61t76.5 183q0 104 -68.5 159.5t-179.5 55.5q-130 0 -250 -69q-30 -17 -43 12l-33 74 q-8 22 15 38q151 93 344 93q107 0 198.5 -40t151 -121.5t59.5 -189.5t-66 -197t-165 -120q125 -30 205 -128t80 -228q0 -127 -66 -227t-174 -152.5t-237 -52.5q-208 0 -349 71q-30 15 -18 49z" />
<glyph unicode="4" d="M88 371v57q0 32 31 102l385 846q15 35 53 35h102q27 0 32 -13t-5 -32l-393 -881h504v326q0 41 39 41h104q22 0 31.5 -9t9.5 -32v-770q0 -41 -39 -41h-104q-22 0 -31.5 9t-9.5 32v287h-666q-43 0 -43 43z" />
<glyph unicode="5" d="M145 119l33 76q14 33 55 12q134 -70 279 -70q127 0 212 75t85 210q0 311 -403 311h-130q-61 0 -61 62v569q0 47 43 47h635q21 0 30 -7.5t9 -25.5v-90q0 -18 -9 -25.5t-30 -7.5h-494v-381h62q89 0 167.5 -15.5t148 -50t119.5 -85t79 -125.5t29 -168q0 -140 -67 -243 t-180 -155t-257 -52q-168 0 -334 86q-37 18 -21 53z" />
<glyph unicode="6" d="M127 600q0 351 117 563q70 128 189 200.5t282 72.5q89 0 172 -25q24 -7 30 -16t3 -25l-19 -78q-4 -21 -15 -26.5t-28 0.5q-67 18 -137 18q-116 0 -198.5 -59t-127.5 -162q-47 -109 -61 -295q61 60 138.5 89.5t154.5 29.5q176 0 289.5 -113t113.5 -309q0 -135 -52 -244.5 t-153 -175t-233 -65.5q-102 0 -182.5 33t-133 89.5t-86.5 136.5t-48.5 169t-14.5 192zM324 555q0 -198 66.5 -310t203.5 -112q64 0 113 30t75.5 78t39 101t12.5 107q0 57 -13 106t-39.5 90t-72.5 64.5t-107 23.5q-67 0 -142.5 -33t-133.5 -98q-2 -18 -2 -47z" />
<glyph unicode="7" d="M131 1284v94q0 18 9 25.5t30 7.5h821q25 0 35 -10t10 -33v-61q0 -39 -20 -84l-549 -1182q-11 -22 -25.5 -31.5t-40.5 -9.5h-112q-49 0 -27 53l565 1198h-657q-21 0 -30 7.5t-9 25.5z" />
<glyph unicode="8" d="M94 381q0 124 86.5 220.5t218.5 150.5q-110 49 -177.5 136.5t-67.5 194.5q0 154 119 253.5t294 99.5q173 0 286.5 -94t113.5 -252q0 -95 -71 -185t-175 -139q154 -64 231.5 -157t77.5 -208q0 -188 -136.5 -304.5t-334.5 -116.5q-131 0 -235 44t-167 136.5t-63 220.5z M289 389q0 -122 82.5 -195t193.5 -73q112 0 191.5 70t79.5 194q0 48 -17.5 89.5t-43 71t-67 57t-76.5 45t-85 38.5q-258 -107 -258 -297zM348 1092q0 -90 58.5 -151.5t160.5 -111.5q38 19 71 42.5t65 55.5t50.5 73.5t18.5 86.5q0 94 -56.5 150.5t-156.5 56.5q-91 0 -151 -57 t-60 -145z" />
<glyph unicode="9" d="M96 952q0 135 52 244t153.5 174.5t233.5 65.5q102 0 182.5 -33t132.5 -89t86 -136t48.5 -168.5t14.5 -192.5q0 -350 -116 -563q-70 -128 -189 -201t-282 -73q-98 0 -174 22q-38 11 -31 45l18 76q8 36 43 27q71 -19 138 -19q115 0 197.5 60t127.5 163q48 112 62 295 q-61 -60 -138.5 -89.5t-154.5 -29.5q-176 0 -290 113t-114 309zM293 969q0 -57 13 -106t39 -90t72 -65t107 -24q67 0 143 33t134 98q2 18 2 47q0 197 -66.5 308.5t-204.5 111.5q-64 0 -112.5 -29.5t-75 -77t-39 -100t-12.5 -106.5z" />
<glyph unicode=":" horiz-adv-x="438" d="M111 92q0 54 36 85.5t86 31.5q47 0 83 -31t36 -82q0 -54 -36 -85t-85 -31t-84.5 30.5t-35.5 81.5zM111 895q0 54 36 85.5t86 31.5q47 0 83 -31t36 -82q0 -54 -36 -85.5t-85 -31.5t-84.5 30.5t-35.5 82.5z" />
<glyph unicode=";" horiz-adv-x="438" d="M106 -227q-16 19 5 37q71 67 71 135q0 27 -34.5 72.5t-34.5 76.5q0 47 31.5 78t78.5 31q52 0 85.5 -43t33.5 -97q0 -90 -51.5 -181.5t-122.5 -133.5q-27 -15 -41 2zM109 895q0 53 36.5 85t85.5 32t85 -32t36 -85q0 -51 -37.5 -83t-83.5 -32q-47 0 -84.5 31.5t-37.5 83.5z " />
<glyph unicode="&#x3c;" d="M166 510v53q0 27 27 45l610 400q33 27 55 -7l53 -79q17 -28 -10 -45l-530 -340l524 -336q16 -10 17.5 -21.5t-7.5 -25.5l-51 -82q-19 -35 -59 -9l-605 402q-24 16 -24 45z" />
<glyph unicode="=" d="M117 319v87q0 18 8.5 25t28.5 7h819q20 0 28.5 -7t8.5 -25v-87q0 -18 -8.5 -25t-28.5 -7h-819q-20 0 -28.5 7t-8.5 25zM117 680v86q0 33 37 33h819q37 0 37 -33v-86q0 -33 -37 -33h-819q-37 0 -37 33z" />
<glyph unicode="&#x3e;" d="M213.5 894q-1.5 12 7.5 26l51 81q19 35 60 9l604 -402q25 -17 25 -45v-53q0 -27 -27 -45l-610 -399q-34 -28 -56 6l-53 80q-17 28 10 45l531 340l-525 335q-16 10 -17.5 22z" />
<glyph unicode="?" horiz-adv-x="862" d="M113 1327q-10 27 14 39q126 70 289 70q151 0 255.5 -87.5t104.5 -234.5q0 -152 -125 -287l-149 -161q-103 -115 -103 -199q0 -12 7 -68q3 -32 -29 -32h-82q-26 0 -33 28q-10 42 -10 101q0 120 94 221l150 155q110 115 110 218q0 58 -19.5 100t-53.5 64t-72 32t-82 10 q-110 0 -201 -51q-10 -6 -22.5 -2t-16.5 17zM229 90q0 53 35 83t84 30q47 0 82 -30t35 -81q0 -53 -35 -82.5t-84 -29.5q-48 0 -82.5 29.5t-34.5 80.5z" />
<glyph unicode="@" horiz-adv-x="1679" d="M117 643q0 224 107 406.5t291.5 284.5t408.5 102q190 0 339 -78.5t233.5 -224.5t84.5 -336q0 -85 -24.5 -171t-70 -160t-120 -120.5t-164.5 -46.5q-85 0 -145 42t-66 132h-2q-85 -137 -225 -137q-111 0 -167 81.5t-56 200.5q0 77 24.5 156t68.5 144.5t112.5 107 t148.5 41.5q61 0 112 -32t68 -99l21 78q5 24 32 24h56q21 0 26 -8t0 -22l-94 -406q-14 -58 -14 -106q0 -55 23 -85t81 -30q55 0 99.5 28t73 72.5t48 101t27.5 111.5t8 107q0 233 -151 372.5t-391 139.5q-182 0 -324.5 -89.5t-218.5 -240.5t-76 -334q0 -260 154.5 -408.5 t416.5 -148.5q164 0 338 78q29 14 37 -10l23 -54q10 -23 -17 -36q-179 -90 -401 -90q-215 0 -380 77t-260 228.5t-95 357.5zM698 616q0 -68 25.5 -114.5t85.5 -46.5q108 0 176 147l49 219q-4 54 -32.5 98t-86.5 44q-56 0 -100.5 -37.5t-68.5 -94t-36 -112t-12 -103.5z" />
<glyph unicode="A" horiz-adv-x="1245" d="M20 41l515 1341q11 29 36 29h109q28 0 37 -25l506 -1345q4 -11 4 -19q0 -22 -31 -22h-131q-22 0 -32.5 7t-16.5 26l-137 385h-531l-141 -385q-6 -19 -16.5 -26t-32.5 -7h-113q-29 0 -29 21q0 8 4 20zM397 559h432l-211 608h-2z" />
<glyph unicode="B" horiz-adv-x="1165" d="M154 47v1317q0 47 43 47h288q480 0 480 -344q0 -116 -64.5 -200.5t-181.5 -108.5v-2q155 -6 254.5 -100.5t99.5 -249.5q0 -94 -28.5 -165.5t-76 -116.5t-117 -73.5t-144.5 -39.5t-166 -11h-344q-43 0 -43 47zM344 145h178q61 0 108.5 5.5t95.5 22.5t80.5 45t53 75.5 t21.5 112.5q0 264 -365 264h-172v-525zM344 809h139q60 0 107.5 9.5t92.5 34.5t70 76t25 126q0 63 -23.5 106t-67.5 65t-94.5 31t-117.5 9h-131v-457z" />
<glyph unicode="C" horiz-adv-x="1210" d="M100 705q0 148 43.5 279.5t123.5 232.5t203.5 160t272.5 59q209 0 377 -93q33 -17 19 -53l-35 -73q-6 -14 -18.5 -18t-26.5 3q-141 80 -303 80q-111 0 -200 -48.5t-143 -129t-82 -179t-28 -204.5q0 -95 16.5 -181t52.5 -161t88 -130t128 -86.5t168 -31.5q167 0 315 74 q38 17 51 -19l25 -61q4 -11 4 -21q0 -24 -27 -36q-177 -88 -395 -88q-125 0 -229 37t-177.5 103t-124 157.5t-74.5 199t-24 228.5z" />
<glyph unicode="D" horiz-adv-x="1372" d="M156 47v1317q0 47 43 47h274q200 0 314.5 -21.5t209.5 -80.5q133 -83 207 -240.5t74 -370.5q0 -174 -54.5 -314.5t-156.5 -233.5q-169 -150 -504 -150h-364q-43 0 -43 47zM346 152h176q149 0 243 23.5t161 90.5q149 152 149 434q0 150 -44.5 270.5t-129.5 188.5 q-121 98 -360 98h-195v-1105z" />
<glyph unicode="E" horiz-adv-x="1044" d="M156 47v1317q0 47 43 47h716q41 0 35 -35l-12 -82q-3 -19 -12.5 -25.5t-32.5 -6.5h-547v-449h483q21 0 30 -7.5t9 -25.5v-82q0 -18 -9 -25t-30 -7h-483v-516h569q21 0 30 -7.5t9 -25.5v-84q0 -18 -9 -25.5t-30 -7.5h-716q-43 0 -43 47z" />
<glyph unicode="F" horiz-adv-x="1026" d="M156 41v1323q0 47 43 47h716q36 0 36 -27q0 -4 -1 -8l-12 -82q-3 -19 -12.5 -25.5t-32.5 -6.5h-547v-449h483q21 0 30 -7.5t9 -25.5v-82q0 -18 -9 -25t-30 -7h-483v-625q0 -41 -39 -41h-110q-22 0 -31.5 9t-9.5 32z" />
<glyph unicode="G" horiz-adv-x="1347" d="M100 705q0 156 47.5 290t134 232t216.5 153.5t288 55.5q190 0 340 -66q19 -9 23.5 -20t-2.5 -29l-29 -80q-11 -32 -47 -18q-58 24 -136 39.5t-142 15.5q-119 0 -213.5 -45t-154 -123t-91 -180.5t-31.5 -220.5t27 -220.5t80 -184t142 -128.5t204 -47q162 0 260 49v488 h-213q-21 0 -30 7t-9 25v82q0 18 9 25.5t30 7.5h362q21 0 31 -10t10 -35v-616q0 -33 -9 -49t-36 -31q-74 -41 -186.5 -66.5t-214.5 -25.5q-163 0 -290 53.5t-207 150.5t-121.5 228.5t-41.5 292.5z" />
<glyph unicode="H" horiz-adv-x="1351" d="M156 41v1329q0 41 39 41h110q22 0 31.5 -9t9.5 -32v-557h660v557q0 41 38 41h111q22 0 31.5 -9t9.5 -32v-1329q0 -41 -39 -41h-110q-22 0 -31.5 9t-9.5 32v625h-660v-625q0 -41 -39 -41h-110q-22 0 -31.5 9t-9.5 32z" />
<glyph unicode="I" horiz-adv-x="759" d="M127 1317v61q0 19 8.5 26t30.5 7h428q22 0 30.5 -7t8.5 -26v-61q0 -19 -8.5 -26t-30.5 -7h-121v-1155h119q22 0 30.5 -7t8.5 -26v-63q0 -19 -8.5 -26t-30.5 -7h-418q-22 0 -30.5 7t-8.5 26v63q0 19 8.5 26t30.5 7h115v1155h-123q-22 0 -30.5 7t-8.5 26z" />
<glyph unicode="J" horiz-adv-x="780" d="M90 37l19 80q7 29 43 22q49 -12 96 -12q54 0 91.5 15.5t59 40t33 67t14.5 82.5t3 100v852h-230q-22 0 -30.5 7t-8.5 26v61q0 19 8.5 26t30.5 7h371q43 0 43 -47v-891q0 -126 -16.5 -211.5t-59 -152t-120.5 -98t-195 -31.5q-69 0 -125 16q-20 6 -25 15q-3 6 -3 14 q0 6 1 12z" />
<glyph unicode="K" horiz-adv-x="1132" d="M156 41v1329q0 41 39 41h110q22 0 31.5 -9t9.5 -32v-594h2l490 604q24 31 67 31h105q23 0 26.5 -14.5t-8.5 -26.5l-520 -637l579 -684q9 -9 12 -21q1 -4 1 -8q0 -7 -4 -12q-6 -8 -23 -8h-135q-28 0 -43.5 7t-30.5 26l-516 620h-2v-612q0 -41 -39 -41h-110q-22 0 -31.5 9 t-9.5 32z" />
<glyph unicode="L" horiz-adv-x="929" d="M156 47v1323q0 41 39 41h110q22 0 31.5 -9t9.5 -32v-1218h514q21 0 30 -7.5t9 -25.5v-86q0 -18 -9 -25.5t-30 -7.5h-661q-43 0 -43 47z" />
<glyph unicode="M" horiz-adv-x="1716" d="M156 39l47 1333q1 23 10.5 31t28.5 8h88q24 0 34.5 -6.5t18.5 -24.5l491 -1126h3l454 1124q8 19 17 26t28 7h97q19 0 26.5 -7t7.5 -26l56 -1337v-8q-1 -15 -7 -23q-8 -10 -30 -10h-117q-23 0 -31 9.5t-8 31.5l-35 1008h-4l-391 -1020q-10 -29 -41 -29h-70q-33 0 -45 29 l-424 1020h-2l-24 -1012q0 -22 -9 -29.5t-32 -7.5h-100q-21 0 -29.5 8.5t-7.5 30.5z" />
<glyph unicode="N" horiz-adv-x="1421" d="M156 41v1329q0 41 39 41h81q44 0 70 -41l739 -1059h5v1059q0 41 38 41h97q22 0 31.5 -9t9.5 -32v-1329q0 -41 -39 -41h-90q-44 0 -70 41l-731 1044h-4v-1044q0 -41 -39 -41h-96q-22 0 -31.5 9t-9.5 32z" />
<glyph unicode="O" horiz-adv-x="1384" d="M100 700q0 332 166 534t434 202q185 0 318 -92t199.5 -253.5t66.5 -375.5q0 -171 -46 -310.5t-127 -232t-191 -142.5t-238 -50q-274 0 -428 192t-154 528zM301 707q0 -269 102.5 -420.5t286.5 -151.5q175 0 284 156.5t109 417.5q0 271 -100 420t-287 149 q-177 0 -286 -158.5t-109 -412.5z" />
<glyph unicode="P" horiz-adv-x="1062" d="M156 41v1323q0 47 43 47h264q119 0 214 -23.5t168.5 -73.5t113.5 -134.5t40 -198.5q0 -115 -39 -201.5t-111 -139.5t-167.5 -79t-214.5 -26h-121v-494q0 -41 -39 -41h-110q-22 0 -31.5 9t-9.5 32zM346 680h127q161 0 247.5 68t86.5 229q0 157 -92 223t-256 66h-113v-586z " />
<glyph unicode="Q" horiz-adv-x="1372" d="M100 698q0 114 23 220.5t72 201t118.5 164.5t169.5 111t219 41q121 0 220 -40t165.5 -107.5t112 -161t66 -197t20.5 -217.5q0 -211 -77.5 -387.5t-233.5 -270.5q36 -18 92.5 -51t99.5 -53q50 -26 136 -55q28 -9 28 -33q0 -7 -2 -15l-22 -71q-6 -21 -19 -26q-6 -2 -14 -2 q-10 0 -23 3q-116 18 -278 137q-43 33 -69.5 49.5t-67 31t-82.5 14.5q-16 0 -45 -2t-45 -2q-115 0 -209.5 39t-159.5 106.5t-109.5 159.5t-65 195.5t-20.5 217.5zM303 707q0 -88 11.5 -167.5t40 -155.5t71.5 -131t111 -88.5t153 -33.5q102 0 180 51t123 136t67.5 183.5 t22.5 205.5q0 89 -11.5 168t-39.5 154t-71 129t-111 87t-154 33q-81 0 -148 -34t-111.5 -90t-75.5 -131t-44.5 -154.5t-13.5 -161.5z" />
<glyph unicode="R" horiz-adv-x="1136" d="M156 41v1323q0 47 43 47h293q516 0 516 -414q0 -142 -80 -245t-207 -146l336 -561q7 -9 7 -18q0 -6 -3 -12q-7 -15 -31 -15h-117q-44 0 -63 37l-307 536h-197v-532q0 -41 -39 -41h-110q-22 0 -31.5 9t-9.5 32zM346 717h158q139 0 225 72.5t86 205.5q0 145 -86 208 t-252 63h-131v-549z" />
<glyph unicode="S" horiz-adv-x="1040" d="M102 1073q0 85 37.5 155.5t99.5 115t139 68.5t159 24q198 0 333 -66q34 -16 23 -49l-31 -82q-8 -24 -29 -24q-10 0 -24 6q-133 59 -262 59q-62 0 -116 -18t-93 -62.5t-39 -109.5q0 -74 39.5 -121.5t120.5 -89.5l219 -117q136 -71 207 -158.5t71 -220.5 q0 -97 -38.5 -175.5t-104.5 -127t-151 -74.5t-181 -26q-179 0 -344 57q-28 9 -28 35q0 7 2 16l26 92q8 26 30 26q10 0 23 -5q149 -60 291 -60q74 0 136.5 22t106.5 75.5t44 130.5q0 81 -44 133t-136 100l-260 139q-226 122 -226 332z" />
<glyph unicode="T" d="M35 1294v84q0 18 9 25.5t30 7.5h991q36 0 36 -27q0 -4 -1 -8l-13 -82q-3 -19 -12.5 -25.5t-32.5 -6.5h-389v-1221q0 -41 -39 -41h-110q-22 0 -31.5 9t-9.5 32v1221h-389q-21 0 -30 7t-9 25z" />
<glyph unicode="U" horiz-adv-x="1423" d="M150 629v741q0 41 38 41h111q22 0 31.5 -9t9.5 -32v-723q0 -66 3 -115.5t12 -105t25.5 -95.5t44.5 -79t67 -62.5t95.5 -38t127.5 -14.5q69 0 123.5 15t93 40t66 64t44 80t26 96.5t12.5 105t3 111.5v721q0 41 39 41h111q22 0 31.5 -9t9.5 -32v-754q0 -145 -31 -258.5 t-96.5 -199.5t-175 -132t-258.5 -46q-131 0 -229 30t-161.5 83t-102 135.5t-54.5 179t-16 221.5z" />
<glyph unicode="V" horiz-adv-x="1249" d="M43 1364q-6 14 -6 23q0 24 33 24h131q41 0 53 -37l389 -1106h4l379 1110q6 19 16.5 26t32.5 7h109q22 -1 27 -11q2 -4 2 -9q0 -9 -5 -21l-475 -1337q-11 -33 -45 -33h-108q-31 0 -43 29z" />
<glyph unicode="W" horiz-adv-x="1841" d="M48 1393q6 18 32 18h129q25 0 36 -8t17 -31l289 -1081h2l278 1085q11 35 50 35h92q41 0 49 -35l285 -1085h4l293 1081q6 23 17.5 31t33.5 8h112q32 0 32 -24q0 -8 -3 -19l-395 -1335q-11 -33 -47 -33h-103q-39 0 -49 35l-280 1071h-2l-283 -1071q-11 -35 -49 -35h-101 q-39 0 -47 33l-391 1327q-4 8 -4 16t3 17z" />
<glyph unicode="X" horiz-adv-x="1153" d="M46 14q-3 5 -3 10q0 10 8 23l424 684l-387 637q-10 14 -3.5 28.5t28.5 14.5h120q46 0 64 -35l285 -483h2l282 485q18 33 62 33h116q20 0 26.5 -12t-3.5 -27l-391 -624l430 -699q9 -13 9 -25q1 -5 -1 -9q-6 -15 -31 -15h-129q-44 0 -65 37l-318 545h-2l-317 -543 q-14 -24 -28 -31.5t-44 -7.5h-106q-21 0 -28 14z" />
<glyph unicode="Y" d="M40 1396q6 15 30 15h116q27 0 39 -7t23 -28l336 -663h2l325 663q9 19 22 27t38 8h88q23 0 29 -12q3 -5 3 -11q0 -8 -6 -20l-415 -811v-516q0 -41 -39 -41h-111q-22 0 -31.5 9t-9.5 32v512l-434 809q-7 13 -7 24q0 5 2 10z" />
<glyph unicode="Z" horiz-adv-x="1107" d="M57 33v57q0 31 23 64l711 1106v2h-633q-21 0 -30 7t-9 25v84q0 18 9 25.5t30 7.5h827q21 0 30 -7.5t9 -25.5v-61q0 -31 -23 -64l-712 -1101v-2h717q21 0 29.5 -7.5t8.5 -25.5v-84q0 -18 -8.5 -25.5t-29.5 -7.5h-910q-21 0 -30 7.5t-9 25.5z" />
<glyph unicode="[" horiz-adv-x="638" d="M193 -248v1637q0 47 43 47h348q19 0 25.5 -7t6.5 -26v-78q0 -19 -6.5 -26t-25.5 -7h-215v-1444h215q19 0 25.5 -6.5t6.5 -25.5v-78q0 -19 -6.5 -26t-25.5 -7h-348q-43 0 -43 47z" />
<glyph unicode="\" horiz-adv-x="714" d="M72 1425.5q5 10.5 28 10.5h97q21 0 31 -7t16 -28l401 -1381q7 -20 1.5 -30t-28.5 -10h-94q-21 0 -31 6.5t-16 27.5l-403 1381q-7 20 -2 30.5z" />
<glyph unicode="]" horiz-adv-x="638" d="M23 -184q0 19 6.5 25.5t25.5 6.5h215v1444h-215q-19 0 -25.5 7t-6.5 26v78q0 19 6.5 26t25.5 7h348q43 0 43 -47v-1637q0 -47 -43 -47h-348q-19 0 -25.5 7t-6.5 26v78z" />
<glyph unicode="^" d="M119 874l375 508q21 29 51 29h49q28 0 47 -31l367 -534q18 -29 -9 -43l-79 -41q-37 -22 -56 12l-305 438l-307 -430q-13 -18 -22.5 -20.5t-28.5 6.5l-74 51q-29 20 -8 55z" />
<glyph unicode="_" horiz-adv-x="1044" d="M10 -199q0 29 31 29h965q28 0 28 -29v-59q0 -27 -28 -27h-965q-31 0 -31 27v59z" />
<glyph unicode="`" horiz-adv-x="665" d="M131 1356l43 65q11 19 25 20.5t34 -11.5l285 -183q26 -18 10 -47l-24 -43q-16 -27 -51 -10l-310 156q-37 18 -12 53z" />
<glyph unicode="a" horiz-adv-x="1112" d="M78 477q0 125 35.5 227.5t95.5 169t138.5 102.5t166.5 36q80 0 155 -33t119 -92l3 65q0 37 38 37h91q38 0 38 -39v-717q0 -63 8 -86.5t38 -23.5h8q19 0 27 -7t8 -24v-61q0 -17 -8 -24t-27 -7h-82q-64 0 -98.5 43.5t-34.5 108.5h-4q-36 -69 -126 -120.5t-182 -51.5 q-103 0 -182.5 41t-127.5 111.5t-72.5 158t-24.5 186.5zM260 489q0 -167 70 -265.5t182 -98.5q93 0 167.5 62t104.5 145v393q-36 68 -104 107.5t-143 39.5q-122 0 -199.5 -102t-77.5 -281z" />
<glyph unicode="b" horiz-adv-x="1103" d="M137 39v1360q0 21 6.5 30.5t24.5 12.5l102 14q5 1 10 1q31 0 31 -36v-526q52 50 129.5 83.5t165.5 33.5q153 0 260 -92q77 -69 116.5 -179.5t39.5 -242.5q0 -143 -48.5 -259t-147 -187.5t-232.5 -71.5q-92 0 -171 34.5t-124 91.5l-4 -73q-1 -19 -10 -26t-31 -7h-78 q-21 0 -30 9t-9 30zM311 256q97 -135 258 -135q131 0 201 105t70 263q0 173 -65.5 276t-203.5 103q-68 0 -139.5 -35t-120.5 -88v-489z" />
<glyph unicode="c" horiz-adv-x="901" d="M82 494q0 230 131.5 374t357.5 144q148 0 265 -60q29 -16 18 -43l-23 -63q-10 -30 -43 -17q-105 48 -208 48q-146 0 -232 -101.5t-86 -273.5q0 -81 18 -149.5t54 -123t96.5 -85.5t140.5 -31q123 0 228 47q31 13 41 -17l18 -57q4 -11 4 -19q0 -5 -2 -10q-4 -11 -24 -20 q-122 -57 -277 -57q-157 0 -266 65.5t-160 179.5t-51 269z" />
<glyph unicode="d" horiz-adv-x="1105" d="M82 489q0 229 123 376t323 147q74 0 149 -30.5t118 -82.5v500q0 21 6 30.5t24 12.5l103 14q5 1 10 1q31 0 31 -36v-1378q0 -43 -41 -43h-78q-23 0 -33 9.5t-10 31.5l-2 72q-50 -59 -132 -96t-169 -37q-107 0 -190 41.5t-132.5 113t-74.5 161.5t-25 193zM262 498 q0 -168 72.5 -273.5t202.5 -105.5q71 0 145 39.5t113 95.5v477q-33 60 -101 100.5t-141 40.5q-136 0 -213.5 -101.5t-77.5 -272.5z" />
<glyph unicode="e" horiz-adv-x="1021" d="M82 496q0 229 127 372.5t344 143.5q97 0 174.5 -34t126.5 -94t74.5 -138t25.5 -168v-52q0 -36 -11 -46.5t-50 -10.5h-629q5 -152 87 -249t229 -97q154 0 251 43q36 16 46 -14l24 -68q6 -17 1.5 -26.5t-21.5 -18.5q-115 -59 -324 -59q-228 0 -351.5 140t-123.5 376z M268 588h514v37q0 110 -61 181t-176 71q-122 0 -194 -82t-83 -207z" />
<glyph unicode="f" horiz-adv-x="706" d="M41 897v61q0 17 7 24t24 7h116v39q0 81 9 164q19 136 101 210.5t222 74.5q111 0 193 -37q19 -8 23 -20q1 -4 1 -8q0 -7 -4 -13l-20 -68q-8 -30 -43 -18q-66 24 -129 24q-100 0 -139.5 -62.5t-39.5 -189.5v-96h252q17 0 24 -7t7 -24v-61q0 -17 -7 -24t-24 -7h-252v-823 q0 -43 -40 -43h-93q-41 0 -41 43v823h-116q-17 0 -24 7t-7 24z" />
<glyph unicode="g" horiz-adv-x="1105" d="M82 494q0 104 29.5 196.5t84 165t141 114.5t193.5 42q76 0 152 -32.5t119 -88.5l2 63q0 35 41 35h90q20 0 28.5 -9.5t8.5 -31.5v-895q0 -246 -110.5 -375t-350.5 -129q-156 0 -293 70q-18 10 -23 19t1 28l30 74q12 31 45 14q119 -61 236 -61q163 0 227 82.5t64 251.5v94 q-48 -54 -131 -87.5t-162 -33.5q-106 0 -188 39t-132.5 107.5t-76 156.5t-25.5 191zM264 504q0 -69 14 -130.5t44 -115.5t84 -85.5t126 -31.5q74 0 150.5 37t114.5 92v461q-34 61 -103 101t-143 40q-75 0 -132.5 -31t-90 -84t-48.5 -116.5t-16 -136.5z" />
<glyph unicode="h" horiz-adv-x="1101" d="M137 43v1356q0 21 6.5 30.5t24.5 12.5l102 14q5 1 10 1q31 0 31 -36v-530q65 58 156 89.5t180 31.5q322 0 322 -367v-602q0 -43 -41 -43h-92q-41 0 -41 43v573q0 120 -43 185t-156 65q-69 0 -149.5 -34t-135.5 -84v-705q0 -43 -41 -43h-92q-41 0 -41 43z" />
<glyph unicode="i" horiz-adv-x="481" d="M135 1231q0 44 30 71t75 27t75.5 -27.5t30.5 -70.5q0 -44 -29.5 -71t-74.5 -27t-76 27.5t-31 70.5zM154 43v905q0 41 41 41h94q39 0 39 -41v-905q0 -43 -41 -43h-92q-41 0 -41 43z" />
<glyph unicode="j" horiz-adv-x="536" d="M-139 -403l12 75q5 31 33 23q46 -10 100 -10q52 0 89.5 18.5t59 47.5t33.5 76t15.5 91t3.5 105v927q0 39 39 39h98q37 0 37 -39v-901q0 -93 -10 -165.5t-36 -137.5t-68 -107t-109.5 -66t-157.5 -24q-64 0 -115 13q-17 4 -22 12q-3 5 -3 13q0 4 1 10zM190 1231q0 44 30 71 t75 27t75.5 -27.5t30.5 -70.5q0 -44 -29.5 -71t-74.5 -27t-76 27.5t-31 70.5z" />
<glyph unicode="k" horiz-adv-x="907" d="M137 43v1356q0 21 6.5 30.5t24.5 12.5l102 14q5 1 10 1q31 0 31 -36v-827h4l314 367q22 28 57 28h96q26 0 33 -14t-10 -33l-309 -352l366 -539q11 -15 11 -27q1 -4 -1 -8q-6 -16 -32 -16h-111q-45 0 -67 35l-289 434l-62 -66v-360q0 -43 -41 -43h-92q-41 0 -41 43z" />
<glyph unicode="l" horiz-adv-x="448" d="M137 43v1356q0 21 6.5 30.5t24.5 12.5l102 14q5 1 10 1q31 0 31 -36v-1378q0 -43 -41 -43h-92q-41 0 -41 43z" />
<glyph unicode="m" horiz-adv-x="1693" d="M137 43v905q0 41 39 41h88q41 0 41 -37l2 -63q64 58 146 90.5t165 32.5q88 0 158 -32t109 -95q69 62 159 94.5t181 32.5q76 0 134.5 -20.5t96 -55.5t61.5 -87t34 -110t10 -129v-567q0 -43 -41 -43h-93q-41 0 -41 43v573q0 125 -43 188.5t-159 63.5q-61 0 -130.5 -26.5 t-125.5 -69.5q16 -52 16 -225v-504q0 -43 -41 -43h-92q-41 0 -41 43v575q0 58 -7.5 99.5t-27.5 77.5t-59 54.5t-98 18.5q-68 0 -138 -33t-129 -87v-705q0 -43 -41 -43h-92q-41 0 -41 43z" />
<glyph unicode="n" horiz-adv-x="1101" d="M137 43v905q0 22 9 31.5t30 9.5h90q39 0 39 -37l2 -63q70 59 158 91t178 32q326 0 326 -367v-602q0 -43 -41 -43h-92q-41 0 -41 43v573q0 58 -8.5 100.5t-30 78t-62 53.5t-100.5 18q-69 0 -148.5 -33.5t-134.5 -84.5v-705q0 -43 -41 -43h-92q-41 0 -41 43z" />
<glyph unicode="o" horiz-adv-x="1095" d="M82 498q0 146 53 261t161.5 184t256.5 69q154 0 259.5 -68t153.5 -182t48 -266q0 -146 -53.5 -261.5t-162.5 -185t-257 -69.5q-116 0 -205 39.5t-144 110t-82.5 163.5t-27.5 205zM262 502q0 -59 8 -112.5t28.5 -104.5t51.5 -88t80.5 -59.5t112.5 -22.5q77 0 135.5 32 t91 87t48.5 120t16 140t-15 140.5t-46.5 121.5t-88 88.5t-133.5 32.5q-64 0 -114.5 -22t-83 -58t-53.5 -85.5t-29.5 -101t-8.5 -108.5z" />
<glyph unicode="p" horiz-adv-x="1107" d="M137 -397v1345q0 22 9 31.5t30 9.5h84q39 0 39 -37l2 -71q50 59 133.5 95t171.5 36q105 0 187.5 -42t132 -113.5t75 -161t25.5 -191.5q0 -104 -28 -197t-82 -166.5t-140 -117t-194 -43.5q-79 0 -153 29.5t-118 84.5v-491q0 -43 -41 -43h-92q-41 0 -41 43zM311 260 q33 -61 103.5 -102t144.5 -41q76 0 133 33.5t89 90.5t47.5 122t15.5 137t-13.5 134t-43 118t-85 88t-131.5 32q-72 0 -147 -37.5t-113 -93.5v-481z" />
<glyph unicode="q" horiz-adv-x="1103" d="M82 494q0 105 28 197.5t82 164.5t140 114t194 42q78 0 154 -31t121 -88l2 63q0 33 41 33h84q39 0 39 -41v-1345q0 -43 -41 -43h-92q-41 0 -41 43v503q-53 -59 -131.5 -92.5t-163.5 -33.5q-87 0 -157 27.5t-118 75t-80 113.5t-46.5 140t-14.5 158zM262 498 q0 -55 7.5 -105.5t26.5 -100.5t48.5 -86.5t76.5 -59.5t107 -23q73 0 147.5 40t117.5 97v465q-36 62 -106 104.5t-142 42.5q-77 0 -133.5 -31.5t-88 -86.5t-46.5 -118.5t-15 -137.5z" />
<glyph unicode="r" horiz-adv-x="651" d="M137 43v905q0 22 9 31.5t30 9.5h90q39 0 39 -37l2 -69q93 129 240 129q38 0 56 -8q15 -6 15 -23v-6l-14 -92q-4 -25 -29 -25q-2 0 -21.5 3t-37.5 3q-54 0 -109.5 -33t-95.5 -90v-698q0 -43 -41 -43h-92q-41 0 -41 43z" />
<glyph unicode="s" horiz-adv-x="821" d="M78 86l26 70q10 30 39 18q137 -61 238 -61q90 0 144.5 42t54.5 113q0 57 -38.5 93.5t-115.5 66.5l-137 53q-94 36 -149.5 101t-55.5 157q0 129 98.5 201t241.5 72q144 0 264 -56q28 -12 19 -38l-25 -68q-9 -29 -41 -16q-111 49 -213 49q-86 0 -130 -37t-44 -94 q0 -49 31.5 -79.5t101.5 -60.5l158 -67q207 -86 207 -260q0 -139 -105 -222t-270 -83q-74 0 -150.5 18.5t-130.5 46.5q-21 12 -21 28q0 6 3 13z" />
<glyph unicode="t" horiz-adv-x="714" d="M37 897v61q0 17 7 24t24 7h112v232q0 21 6.5 30.5t24.5 12.5l102 14q5 1 10 1q31 0 31 -36v-254h240q17 0 24 -7t7 -24v-61q0 -17 -7 -24t-24 -7h-240v-551q0 -106 30 -152t116 -46q61 0 125 22q35 14 43 -18l18 -62q2 -7 2 -12q0 -8 -4 -14q-6 -9 -25 -17 q-94 -36 -192 -36q-88 0 -145 20t-88 64t-42.5 99.5t-11.5 139.5v563h-112q-17 0 -24 7t-7 24z" />
<glyph unicode="u" horiz-adv-x="1093" d="M137 350v598q0 41 41 41h94q39 0 39 -41v-571q0 -122 41.5 -185t155.5 -63q64 0 140.5 36t129.5 85v698q0 41 41 41h94q39 0 39 -41v-907q0 -22 -9 -31.5t-30 -9.5h-90q-39 0 -39 37l-2 65q-143 -122 -323 -122q-322 0 -322 370z" />
<glyph unicode="v" horiz-adv-x="929" d="M33 952q-3 8 -3 14q0 8 4 13q8 10 27 10h113q41 0 49 -28l250 -768h2l246 763q6 18 17.5 25.5t33.5 7.5h94q31 0 31 -23q0 -8 -4 -18l-334 -915q-13 -33 -47 -33h-98q-38 0 -49 33z" />
<glyph unicode="w" horiz-adv-x="1415" d="M35 948q-3 9 -3 16q0 25 34 25h106q43 0 49 -28l195 -758h4l209 755q8 31 41 31h92q30 0 37 -24l213 -764h4l192 753q9 35 49 35h97q27 0 27 -23q0 -8 -3 -18l-270 -911q-12 -37 -49 -37h-111q-40 0 -49 37l-194 694h-3l-188 -696q-10 -35 -51 -35h-109q-39 0 -49 37z " />
<glyph unicode="x" horiz-adv-x="962" d="M39 13q-1 3 -1 7q0 10 7 19l342 475l-291 434q-10 14 -4 27.5t25 13.5h123q36 0 53 -28l199 -312h2l211 312q20 28 53 28h108q22 0 27 -11t-8 -30l-305 -416l333 -487q8 -13 8 -23q1 -5 -1 -9q-6 -13 -29 -13h-121q-45 0 -65 33l-230 366h-2l-240 -368q-19 -31 -59 -31 h-117q-15 0 -18 13z" />
<glyph unicode="y" horiz-adv-x="978" d="M25 -401l14 82q6 29 33 26q58 -8 78 -8q84 0 137 38t86 118l51 129l-367 968q-6 17 2 27t27 10h117q41 0 49 -28l266 -764l258 759q6 18 17.5 25.5t33.5 7.5h99q30 0 30 -22q0 -8 -4 -19l-395 -1067q-68 -184 -159 -258t-255 -74q-44 0 -94 13q-25 6 -25 29q0 4 1 8z" />
<glyph unicode="z" horiz-adv-x="849" d="M70 35v55q0 29 26 70l467 704v2h-430q-17 0 -24 7t-7 24v61q0 17 7 24t24 7h594q35 0 35 -35v-49q0 -27 -27 -69l-471 -709v-2h492q17 0 23.5 -7t6.5 -24v-63q0 -17 -6.5 -24t-23.5 -7h-652q-34 0 -34 35z" />
<glyph unicode="{" horiz-adv-x="688" d="M74 563v45q0 16 6.5 24t25.5 9q60 6 84.5 58t26.5 143l6 315q3 144 81 217.5t206 73.5h131q18 0 24.5 -6t2.5 -23l-15 -59q-5 -27 -28 -27h-99q-138 0 -141 -184l-6 -272q-3 -135 -43.5 -209.5t-106.5 -79.5v-2q142 -10 150 -305l6 -261q4 -182 141 -182h90q30 0 35 -22 l15 -60q3 -16 -4.5 -24t-32.5 -8h-119q-133 0 -208.5 71t-78.5 219l-6 301q-2 104 -25 156t-83 59q-24 3 -29.5 9.5t-5.5 23.5z" />
<glyph unicode="|" horiz-adv-x="421" d="M129 2v1411q0 43 41 43h82q41 0 41 -43v-1411q0 -43 -41 -43h-82q-41 0 -41 43z" />
<glyph unicode="}" horiz-adv-x="688" d="M20 -248l15 60q5 26 28 26h99q138 0 141 185l6 272q3 135 43.5 209.5t106.5 79.5v2q-142 10 -150 305l-6 260q-4 182 -141 182h-90q-29 0 -35 23l-14 59q-3 17 4 25t32 8h119q133 0 208.5 -71t78.5 -220l6 -301q2 -103 25.5 -155.5t83.5 -59.5q17 -2 24.5 -6.5t8.5 -9 t1 -17.5v-45q0 -16 -6.5 -24t-25.5 -9q-60 -6 -84.5 -57.5t-26.5 -142.5l-6 -316q-3 -144 -80.5 -217t-206.5 -73h-131q-18 0 -24.5 6t-2.5 22z" />
<glyph unicode="~" d="M115 578q36 79 113 120t163 41q82 0 166 -51l72 -41q59 -35 119 -35q91 0 135 72q16 34 53 18l57 -24q36 -14 17 -53q-44 -85 -117.5 -125.5t-163.5 -40.5q-77 0 -166 51l-71 41q-65 35 -115 35q-99 0 -141 -66q-11 -20 -22 -25.5t-34 3.5l-53 26q-28 15 -12 54z" />
<glyph unicode="&#xa1;" horiz-adv-x="505" d="M135 899q0 53 35 83t84 30q47 0 82 -30t35 -81q0 -53 -35 -83t-84 -30q-47 0 -82 30t-35 81zM158 -379l20 1030q0 19 8 27t27 8h72q21 0 29 -7.5t8 -27.5l18 -1030q0 -41 -39 -41h-102q-22 0 -31.5 9t-9.5 32z" />
<glyph unicode="&#xa2;" d="M166 494q0 216 117 356.5t321 157.5v168q0 28 29 28h51q29 0 29 -28v-166q117 -12 207 -58q29 -16 18 -43l-23 -63q-10 -30 -43 -17q-85 37 -159 45v-759q87 6 170 45q31 13 41 -17l18 -57q7 -18 2.5 -29t-24.5 -20q-95 -43 -207 -53v-154q0 -29 -29 -29h-51 q-29 0 -29 29v152q-216 12 -327 148.5t-111 363.5zM346 502q0 -100 26 -180t85 -136t147 -69v753q-121 -20 -189.5 -117.5t-68.5 -250.5z" />
<glyph unicode="&#xa3;" d="M127 33v59q0 20 6 30.5t27 20.5q147 75 147 295v221h-102q-21 0 -29 6.5t-8 24.5v74q0 18 8 24.5t29 6.5h102v192q0 209 100.5 329t301.5 120q155 0 272 -56q21 -9 12 -39l-24 -75q-8 -32 -37 -21q-103 39 -201 39q-239 0 -239 -283v-206h319q21 0 29 -6.5t8 -24.5v-74 q0 -18 -8 -24.5t-29 -6.5h-319v-208q0 -216 -111 -295v-6h604q21 0 30 -7.5t9 -25.5v-84q0 -18 -9 -25.5t-30 -7.5h-819q-21 0 -30 7.5t-9 25.5z" />
<glyph unicode="&#xa4;" d="M173.5 433.5q-0.5 11.5 16.5 29.5l97 98q-35 65 -35 148q0 82 35 147l-97 98q-17 18 -16.5 30t16.5 28l46 45q15 15 27.5 15t29.5 -17l90 -90q79 57 180 57t180 -57l91 90q17 17 29.5 17t27.5 -15l45 -45q16 -16 16.5 -28t-16.5 -30l-96 -98q34 -64 34 -147 q0 -84 -34 -148l96 -98q17 -18 16.5 -29.5t-16.5 -27.5l-45 -46q-15 -15 -27.5 -15t-29.5 17l-91 91q-80 -58 -180 -58t-180 58l-90 -91q-17 -17 -29.5 -17t-27.5 15l-46 46q-16 16 -16.5 27.5zM399 709q0 -79 41.5 -129t122.5 -50t122.5 50t41.5 129t-41.5 128.5 t-122.5 49.5t-122.5 -49.5t-41.5 -128.5z" />
<glyph unicode="&#xa5;" d="M42 1396.5q6 14.5 30 14.5h116q27 0 39 -7t23 -28l336 -663h2l325 663q9 19 22 27t38 8h88q23 0 29.5 -12t-3.5 -31l-362 -706h178q20 0 26.5 -7t6.5 -28v-47q0 -23 -7 -29t-30 -6h-227v-103h231q20 0 26.5 -7t6.5 -27v-48q0 -22 -7 -28t-30 -6h-227v-285q0 -41 -39 -41 h-111q-22 0 -31.5 9t-9.5 32v285h-219q-23 0 -29 7.5t-6 31.5v41q0 23 7.5 29.5t29.5 6.5h217v103h-219q-23 0 -29 7.5t-6 31.5v41q0 23 7.5 30t29.5 7h158l-375 700q-11 20 -5 34.5z" />
<glyph unicode="&#xa6;" horiz-adv-x="421" d="M129 2v473q0 43 41 43h82q41 0 41 -43v-473q0 -43 -41 -43h-82q-41 0 -41 43zM129 940v473q0 43 41 43h82q41 0 41 -43v-473q0 -43 -41 -43h-82q-41 0 -41 43z" />
<glyph unicode="&#xa7;" horiz-adv-x="952" d="M145 49.5q-4 9.5 2 26.5l25 69q11 33 39 19q53 -23 121 -37t121 -14q88 0 144 42t56 111q0 56 -38 93t-115 69l-140 57q-210 87 -210 258q0 70 33 125t91 90q-114 80 -114 205q0 128 102 200.5t246 72.5q143 0 260 -47q24 -9 18 -33l-24 -78q-8 -25 -41 -14 q-100 41 -205 41q-80 0 -128 -36.5t-48 -90.5q0 -48 31.5 -83t97.5 -63l158 -67q209 -88 209 -260q0 -139 -111 -226q96 -83 96 -194q0 -138 -103.5 -221.5t-268.5 -83.5q-163 0 -281 53q-19 7 -23 16.5zM319 762q0 -50 32 -83.5t100 -64.5l143 -61q78 51 78 131 q0 56 -39 92.5t-123 71.5l-92 39q-44 -20 -71.5 -53t-27.5 -72z" />
<glyph unicode="&#xa8;" horiz-adv-x="665" d="M47 1335q0 47 31.5 74t75.5 27q42 0 72 -27t30 -72q0 -47 -30 -73.5t-74 -26.5q-42 0 -73.5 26.5t-31.5 71.5zM410 1335q0 47 31 74t75 27q42 0 72 -27t30 -72q0 -47 -30 -73.5t-74 -26.5q-42 0 -73 26.5t-31 71.5z" />
<glyph unicode="&#xa9;" horiz-adv-x="1703" d="M113 711q0 158 56 293.5t154 230t235 148t294 53.5q209 0 377.5 -91t265 -257.5t96.5 -376.5t-97 -378t-265.5 -260.5t-376.5 -92.5q-158 0 -295 54.5t-234.5 150.5t-153.5 232.5t-56 293.5zM248 709q0 -175 77.5 -313t215.5 -214t311 -76t311 76t215.5 214t77.5 313 t-77.5 312.5t-215.5 212.5t-311 75t-311 -75t-215.5 -212.5t-77.5 -312.5zM549 707q0 156 89 264t241 108q109 0 192 -45q23 -13 12 -37l-16 -34q-4 -12 -14.5 -15.5t-20.5 2.5q-70 37 -147 37q-106 0 -162.5 -80t-56.5 -196q0 -122 56 -202.5t163 -80.5q91 0 157 35 q23 11 31 -8l17 -41q10 -22 -17 -35q-82 -43 -203 -43q-158 0 -239.5 104.5t-81.5 266.5z" />
<glyph unicode="&#xaa;" horiz-adv-x="612" d="M57 860q0 190 342 176v6q0 56 -24 84.5t-86 28.5q-63 0 -139 -27q-21 -7 -27.5 -4.5t-11.5 15.5l-15 39q-6 21 -3 29t18 14q83 39 188 39q125 0 180 -58q53 -56 53 -176v-305q0 -13 -5 -19t-21 -6h-64q-16 0 -21.5 5.5t-8.5 19.5l-6 31q-64 -64 -162 -64 q-78 0 -132.5 45.5t-54.5 126.5zM193 864q0 -32 23.5 -54t64.5 -22q32 0 64.5 15t53.5 37v116q-206 9 -206 -92z" />
<glyph unicode="&#xab;" horiz-adv-x="948" d="M104 463q0 23 15 41l221 291q19 25 43 12l55 -31q24 -15 8 -41l-170 -266l168 -276q18 -29 -8 -43l-49 -29q-27 -15 -45 8l-225 301q-13 20 -13 33zM465 463q0 24 14 41l221 291q19 25 43 12l56 -31q24 -15 8 -41l-170 -266l168 -276q18 -29 -8 -43l-49 -29 q-28 -15 -46 8l-225 301q-12 18 -12 33z" />
<glyph unicode="&#xac;" d="M111 625v86q0 18 8.5 25t27.5 7h766q30 0 41 -10t11 -35v-364q0 -35 -37 -35h-84q-37 0 -37 35v258h-660q-19 0 -27.5 7.5t-8.5 25.5z" />
<glyph unicode="&#xad;" horiz-adv-x="567" d="M84 496v79q0 23 8.5 32t30.5 9h321q22 0 30.5 -9t8.5 -32v-79q0 -22 -8.5 -30.5t-30.5 -8.5h-321q-22 0 -30.5 8.5t-8.5 30.5z" />
<glyph unicode="&#xae;" horiz-adv-x="1703" d="M113 711q0 158 56 293.5t154 230t235 148t294 53.5q209 0 377.5 -91t265 -257.5t96.5 -376.5t-97 -378t-265.5 -260.5t-376.5 -92.5q-158 0 -295 54.5t-234.5 150.5t-153.5 232.5t-56 293.5zM248 709q0 -175 77.5 -313t215.5 -214t311 -76t311 76t215.5 214t77.5 313 t-77.5 312.5t-215.5 212.5t-311 75t-311 -75t-215.5 -212.5t-77.5 -312.5zM643 371v669q0 27 27 27h149q266 0 266 -215q0 -71 -39 -124t-102 -77l168 -280q15 -27 -14 -27h-70q-25 0 -35 18l-153 269h-86v-260q0 -27 -25 -27h-61q-25 0 -25 27zM754 719h71q67 0 107.5 34 t40.5 97q0 68 -41 97.5t-121 29.5h-57v-258z" />
<glyph unicode="&#xaf;" horiz-adv-x="665" d="M61 1251v49q0 23 8.5 32t30.5 9h465q22 0 30.5 -9t8.5 -32v-49q0 -22 -8.5 -30.5t-30.5 -8.5h-465q-22 0 -30.5 8.5t-8.5 30.5z" />
<glyph unicode="&#xb0;" horiz-adv-x="595" d="M78 1219q0 102 64 159.5t159 57.5q92 0 154.5 -57.5t62.5 -159.5q0 -103 -62.5 -160.5t-154.5 -57.5q-95 0 -159 57.5t-64 160.5zM195 1219q0 -54 30 -80.5t76 -26.5q45 0 73.5 26.5t28.5 80.5q0 51 -29 77.5t-73 26.5q-46 0 -76 -26.5t-30 -77.5z" />
<glyph unicode="&#xb1;" d="M137 33v86q0 33 37 33h778q37 0 37 -33v-86q0 -33 -37 -33h-778q-37 0 -37 33zM137 707v86q0 18 8.5 25t28.5 7h309v334q0 35 37 35h88q37 0 37 -35v-334h307q20 0 28.5 -7t8.5 -25v-86q0 -33 -37 -33h-307v-330q0 -35 -37 -35h-88q-37 0 -37 35v330h-309q-37 0 -37 33z " />
<glyph unicode="&#xb2;" horiz-adv-x="618" d="M68 936v27q0 27 9.5 43.5t45.5 52.5q155 155 210.5 228.5t55.5 142.5q0 50 -27.5 77t-78.5 27q-63 0 -144 -43q-20 -10 -33 12l-24 41q-14 25 8 39q96 59 207 59q105 0 168 -54t63 -146q0 -86 -66 -181t-229 -239h271q17 0 22.5 -6t5.5 -21v-55q0 -15 -5 -21t-21 -6h-412 q-26 0 -26 23z" />
<glyph unicode="&#xb3;" horiz-adv-x="618" d="M66 985l20 51q11 25 37 13q73 -33 141 -33q62 0 97.5 30t35.5 82q0 55 -30 82q-42 39 -140 39h-16q-27 0 -27 25v45q0 24 25 24h22q80 0 113 33q27 27 27 68q0 43 -30 66.5t-79 23.5q-53 0 -127 -31q-22 -10 -31 8l-20 50q-12 26 12 38q87 43 185 43q117 0 178 -61 q47 -47 47 -123q0 -104 -107 -153q61 -15 99.5 -64t38.5 -115q0 -95 -66 -155q-72 -66 -197 -66q-106 0 -194 45q-24 12 -14 35z" />
<glyph unicode="&#xb4;" horiz-adv-x="665" d="M135 1190q-18 32 10 49l289 186q18 13 32.5 12t27.5 -20l41 -67q11 -13 8 -29t-21 -23l-313 -161q-31 -15 -49 12z" />
<glyph unicode="&#xb5;" horiz-adv-x="1142" d="M137 -305v1253q0 23 10 32t31 9h92q21 0 31 -9t10 -32v-577q0 -143 51 -199q47 -53 150 -53q68 0 139.5 32.5t128.5 84.5v712q0 23 10 32t31 9h92q21 0 31 -9t10 -32v-672q0 -81 9 -110t38 -29t52 15q8 8 25 5t24 -20l24 -53q13 -30 -18 -49q-67 -45 -154 -45 q-128 0 -159 114q-59 -59 -136 -91.5t-155 -32.5q-137 0 -195 61v-346q0 -23 -10 -32t-31 -9h-90q-21 0 -31 9t-10 32z" />
<glyph unicode="&#xb6;" horiz-adv-x="1067" d="M94 1079q0 138 98 235t236 97h432q41 0 41 -43v-1614q0 -43 -39 -43h-57q-39 0 -39 43v1518h-176v-1518q0 -43 -41 -43h-88q-41 0 -41 43v996q-139 8 -232.5 101.5t-93.5 227.5z" />
<glyph unicode="&#xb7;" horiz-adv-x="417" d="M92 590q0 53 35 82.5t84 29.5q48 0 82.5 -29.5t34.5 -80.5q0 -53 -35 -83t-84 -30q-47 0 -82 30t-35 81z" />
<glyph unicode="&#xb8;" horiz-adv-x="665" d="M174 -354l16 47q10 30 41 16q44 -18 107 -18q34 0 54 14.5t20 42.5q0 59 -82 59h-60q-37 0 -47.5 15t-5.5 51l16 150h132l-9 -111h25q86 0 133 -40.5t47 -121.5q0 -74 -54.5 -121t-164.5 -47q-94 0 -149 27q-27 13 -19 37z" />
<glyph unicode="&#xb9;" horiz-adv-x="618" d="M82 1473q-13 22 10 36l178 105q36 20 68 20h55q16 0 21.5 -5.5t5.5 -18.5v-672q0 -13 -5.5 -19t-21.5 -6h-82q-16 0 -21 6t-5 19v557l-135 -80q-26 -14 -37 8z" />
<glyph unicode="&#xba;" horiz-adv-x="638" d="M45 973q0 126 74 206.5t200 80.5t200.5 -80.5t74.5 -206.5t-74 -205.5t-201 -79.5q-126 0 -200 79.5t-74 205.5zM182 973q0 -87 35.5 -134.5t101.5 -47.5t102 48t36 134q0 87 -36 135.5t-102 48.5t-101.5 -48.5t-35.5 -135.5z" />
<glyph unicode="&#xbb;" horiz-adv-x="948" d="M143 193l170 266l-168 276q-18 28 9 43l49 29q27 15 45 -8l225 -301q12 -18 12 -35q0 -22 -14 -39l-221 -293q-19 -25 -43 -12l-55 33q-25 16 -9 41zM502 193l170 266l-168 276q-18 29 8 43l49 29q27 15 45 -8l225 -301q13 -20 13 -35q0 -21 -15 -39l-221 -293 q-19 -25 -43 -12l-55 33q-24 15 -8 41z" />
<glyph unicode="&#xbc;" horiz-adv-x="1613" d="M125 1255q-13 23 10 37l178 105q36 20 68 20h55q16 0 21.5 -5.5t5.5 -18.5v-672q0 -13 -5.5 -19t-21.5 -6h-82q-16 0 -21 6t-5 19v557l-135 -80q-26 -14 -37 8zM291 27l854 1370q15 25 27.5 32t41.5 7h58q58 0 28 -47l-854 -1371q-14 -23 -27 -30.5t-42 -7.5h-60 q-54 0 -26 47zM956 186v17q0 42 19 88l176 405q11 25 37 25h78q18 0 22.5 -7t-2.5 -26l-182 -422h215v144q0 13 5.5 18.5t21.5 5.5h79q16 0 21.5 -5.5t5.5 -18.5v-385q0 -13 -5.5 -19t-21.5 -6h-79q-16 0 -21.5 6t-5.5 19v133h-334q-17 0 -23 6.5t-6 21.5z" />
<glyph unicode="&#xbd;" horiz-adv-x="1613" d="M125 1255q-13 23 10 37l178 105q36 20 68 20h55q16 0 21.5 -5.5t5.5 -18.5v-672q0 -13 -5.5 -19t-21.5 -6h-82q-16 0 -21 6t-5 19v557l-135 -80q-26 -14 -37 8zM291 27l854 1370q15 25 27.5 32t41.5 7h58q58 0 28 -47l-854 -1371q-14 -23 -27 -30.5t-42 -7.5h-60 q-54 0 -26 47zM1014 23v26q0 27 9.5 43.5t45.5 52.5q155 155 210.5 228.5t55.5 142.5q0 50 -27.5 77.5t-78.5 27.5q-63 0 -144 -43q-20 -10 -32 12l-25 41q-14 25 8 39q96 59 207 59q105 0 168.5 -54.5t63.5 -146.5q0 -86 -65.5 -180.5t-229.5 -238.5h270q17 0 23 -6t6 -21 v-55q0 -15 -5.5 -21t-21.5 -6h-412q-26 0 -26 23z" />
<glyph unicode="&#xbe;" horiz-adv-x="1613" d="M115 768l20 51q11 24 37 12q71 -32 141 -32q62 0 97.5 30t35.5 82q0 55 -30 82q-42 39 -140 39h-16q-27 0 -27 25v45q0 24 25 24h23q79 0 112 33q27 27 27 68q0 43 -30 66.5t-79 23.5q-53 0 -127 -31q-21 -9 -30 8l-21 49q-12 27 12 39q87 43 185 43q117 0 178 -61 q47 -47 47 -123q0 -106 -106 -154q61 -15 99 -63.5t38 -114.5q0 -95 -66 -155q-72 -66 -196 -66q-107 0 -195 45q-24 12 -14 35zM299 27l854 1370q15 25 28 32t42 7h57q59 0 29 -47l-854 -1371q-13 -23 -27 -30.5t-43 -7.5h-59q-55 0 -27 47zM956 186v17q0 42 19 88l176 405 q11 25 37 25h78q18 0 22.5 -7t-2.5 -26l-182 -422h215v144q0 13 5.5 18.5t21.5 5.5h79q16 0 21.5 -5.5t5.5 -18.5v-385q0 -13 -5.5 -19t-21.5 -6h-79q-16 0 -21.5 6t-5.5 19v133h-334q-17 0 -23 6.5t-6 21.5z" />
<glyph unicode="&#xbf;" horiz-adv-x="862" d="M109 -129q0 153 124 287l150 161q102 114 102 199q0 20 -6 68q-3 32 29 32h82q26 0 33 -28q10 -42 10 -101q0 -120 -94 -221l-150 -155q-110 -115 -110 -217q0 -58 19.5 -100t53.5 -64.5t72 -32.5t82 -10q110 0 201 51q10 6 22 2.5t16 -16.5l27 -68q10 -27 -14 -39 q-126 -70 -289 -70q-151 0 -255.5 87.5t-104.5 234.5zM420 899q0 53 35 83t84 30q47 0 81.5 -30t34.5 -81q0 -53 -34.5 -83t-83.5 -30q-47 0 -82 30t-35 81z" />
<glyph unicode="&#xc0;" horiz-adv-x="1245" d="M20 41l515 1341q11 29 36 29h109q28 0 37 -25l506 -1345q16 -41 -27 -41h-131q-22 0 -32.5 7t-16.5 26l-137 385h-531l-141 -385q-6 -19 -16.5 -26t-32.5 -7h-113q-41 0 -25 41zM397 559h432l-211 608h-2zM416 1765l43 66q11 19 25 20t34 -12l285 -182q26 -18 10 -47 l-25 -43q-17 -28 -51 -11l-309 156q-37 18 -12 53z" />
<glyph unicode="&#xc1;" horiz-adv-x="1245" d="M20 41l515 1341q11 29 36 29h109q28 0 37 -25l506 -1345q16 -41 -27 -41h-131q-22 0 -32.5 7t-16.5 26l-137 385h-531l-141 -385q-6 -19 -16.5 -26t-32.5 -7h-113q-41 0 -25 41zM397 559h432l-211 608h-2zM432 1606q-18 32 10 49l289 186q18 13 32.5 12t27.5 -20l40 -68 q11 -13 8.5 -28.5t-20.5 -22.5l-313 -162q-30 -15 -49 13z" />
<glyph unicode="&#xc2;" horiz-adv-x="1245" d="M20 41l515 1341q11 29 36 29h109q28 0 37 -25l506 -1345q16 -41 -27 -41h-131q-22 0 -32.5 7t-16.5 26l-137 385h-531l-141 -385q-6 -19 -16.5 -26t-32.5 -7h-113q-41 0 -25 41zM336 1585q-19 22 2 43l215 195q19 16 43 16h37q24 0 41 -14l225 -201q21 -21 2 -43l-31 -33 q-23 -23 -45 -4l-211 166l-198 -156q-30 -24 -51 0zM397 559h432l-211 608h-2z" />
<glyph unicode="&#xc3;" horiz-adv-x="1245" d="M20 41l515 1341q11 29 36 29h109q28 0 37 -25l506 -1345q16 -41 -27 -41h-131q-22 0 -32.5 7t-16.5 26l-137 385h-531l-141 -385q-6 -19 -16.5 -26t-32.5 -7h-113q-41 0 -25 41zM270 1657q26 69 83.5 102t131.5 33q39 0 70 -8.5t80 -32.5l49 -25q54 -26 96 -26 q46 0 74 47q23 41 59 22l41 -20q23 -12 13 -43q-24 -69 -79 -105t-124 -36q-63 0 -158 45l-47 22q-60 29 -90 29q-37 0 -54.5 -12t-33.5 -43q-18 -36 -53 -19l-41 21q-32 13 -17 49zM397 559h432l-211 608h-2z" />
<glyph unicode="&#xc4;" horiz-adv-x="1245" d="M20 41l515 1341q11 29 36 29h109q28 0 37 -25l506 -1345q16 -41 -27 -41h-131q-22 0 -32.5 7t-16.5 26l-137 385h-531l-141 -385q-6 -19 -16.5 -26t-32.5 -7h-113q-41 0 -25 41zM334 1671q0 47 31 74t75 27q42 0 72.5 -27t30.5 -72q0 -47 -30.5 -73.5t-74.5 -26.5 q-42 0 -73 26.5t-31 71.5zM397 559h432l-211 608h-2zM696 1671q0 47 31.5 74t75.5 27q42 0 72 -27t30 -72q0 -47 -30 -73.5t-74 -26.5q-42 0 -73.5 26.5t-31.5 71.5z" />
<glyph unicode="&#xc5;" horiz-adv-x="1245" d="M20 41l515 1341q11 29 36 29h109q28 0 37 -25l506 -1345q16 -41 -27 -41h-131q-22 0 -32.5 7t-16.5 26l-137 385h-531l-141 -385q-6 -19 -16.5 -26t-32.5 -7h-113q-41 0 -25 41zM397 559h432l-211 608h-2zM424 1679q0 79 56.5 136t137.5 57q85 0 140 -56.5t55 -136.5 t-55 -136t-140 -56q-82 0 -138 56.5t-56 135.5zM541 1679q0 -32 22.5 -53.5t54.5 -21.5q33 0 55.5 21.5t22.5 53.5t-23 54t-55 22t-54.5 -22t-22.5 -54z" />
<glyph unicode="&#xc6;" horiz-adv-x="1800" d="M8 13q-4 13 8 30l852 1327q25 41 80 41h723q41 0 35 -35l-12 -82q-3 -19 -12.5 -25.5t-32.5 -6.5h-547v-449h483q21 0 30 -7.5t9 -25.5v-82q0 -18 -9 -25t-30 -7h-483v-516h569q21 0 30 -7.5t9 -25.5v-84q0 -18 -9 -25.5t-30 -7.5h-717q-43 0 -43 47v373h-456l-246 -385 q-21 -35 -62 -35h-114q-21 0 -25 13zM535 561h376v594z" />
<glyph unicode="&#xc7;" horiz-adv-x="1210" d="M100 705q0 148 43.5 279.5t123.5 232.5t203.5 160t272.5 59q209 0 377 -93q33 -17 19 -53l-35 -73q-6 -14 -18.5 -18t-26.5 3q-141 80 -303 80q-111 0 -200 -48.5t-143 -129t-82 -179t-28 -204.5q0 -95 16.5 -181t52.5 -161t88 -130t128 -86.5t168 -31.5q167 0 315 74 q38 17 51 -19l25 -61q15 -40 -23 -57q-155 -77 -342 -86l-4 -70h25q86 0 133 -40.5t47 -121.5q0 -74 -54.5 -121t-164.5 -47q-95 0 -150 27q-26 13 -18 37l16 47q10 30 41 16q44 -18 107 -18q34 0 54 14.5t20 42.5q0 59 -82 59h-60q-37 0 -47.5 15t-5.5 51l12 111 q-137 14 -243.5 75.5t-173 159t-100.5 220.5t-34 266z" />
<glyph unicode="&#xc8;" horiz-adv-x="1044" d="M156 47v1317q0 47 43 47h716q41 0 35 -35l-12 -82q-3 -19 -12.5 -25.5t-32.5 -6.5h-547v-449h483q21 0 30 -7.5t9 -25.5v-82q0 -18 -9 -25t-30 -7h-483v-516h569q21 0 30 -7.5t9 -25.5v-84q0 -18 -9 -25.5t-30 -7.5h-716q-43 0 -43 47zM350 1765l43 66q11 19 25.5 20 t34.5 -12l284 -182q27 -19 11 -47l-25 -43q-17 -28 -51 -11l-310 156q-37 18 -12 53z" />
<glyph unicode="&#xc9;" horiz-adv-x="1044" d="M156 47v1317q0 47 43 47h716q41 0 35 -35l-12 -82q-3 -19 -12.5 -25.5t-32.5 -6.5h-547v-449h483q21 0 30 -7.5t9 -25.5v-82q0 -18 -9 -25t-30 -7h-483v-516h569q21 0 30 -7.5t9 -25.5v-84q0 -18 -9 -25.5t-30 -7.5h-716q-43 0 -43 47zM379 1606q-18 32 10 49l289 186 q18 13 32 12t27 -20l41 -68q11 -13 8.5 -28.5t-20.5 -22.5l-313 -162q-31 -16 -50 13z" />
<glyph unicode="&#xca;" horiz-adv-x="1044" d="M156 47v1317q0 47 43 47h716q41 0 35 -35l-12 -82q-3 -19 -12.5 -25.5t-32.5 -6.5h-547v-449h483q21 0 30 -7.5t9 -25.5v-82q0 -18 -9 -25t-30 -7h-483v-516h569q21 0 30 -7.5t9 -25.5v-84q0 -18 -9 -25.5t-30 -7.5h-716q-43 0 -43 47zM287 1585q-19 22 2 43l215 195 q19 16 43 16h37q24 0 41 -14l225 -201q21 -21 2 -43l-31 -33q-23 -23 -45 -4l-211 166l-198 -156q-31 -24 -52 0z" />
<glyph unicode="&#xcb;" horiz-adv-x="1044" d="M156 47v1317q0 47 43 47h716q41 0 35 -35l-12 -82q-3 -19 -12.5 -25.5t-32.5 -6.5h-547v-449h483q21 0 30 -7.5t9 -25.5v-82q0 -18 -9 -25t-30 -7h-483v-516h569q21 0 30 -7.5t9 -25.5v-84q0 -18 -9 -25.5t-30 -7.5h-716q-43 0 -43 47zM285 1671q0 47 31 74t75 27 q42 0 72.5 -27t30.5 -72q0 -47 -30.5 -73.5t-74.5 -26.5q-42 0 -73 26.5t-31 71.5zM647 1671q0 47 31.5 74t75.5 27q42 0 72 -27t30 -72q0 -47 -30 -73.5t-74 -26.5q-42 0 -73.5 26.5t-31.5 71.5z" />
<glyph unicode="&#xcc;" horiz-adv-x="759" d="M127 1317v61q0 19 8.5 26t30.5 7h428q22 0 30.5 -7t8.5 -26v-61q0 -19 -8.5 -26t-30.5 -7h-121v-1155h119q22 0 30.5 -7t8.5 -26v-63q0 -19 -8.5 -26t-30.5 -7h-418q-22 0 -30.5 7t-8.5 26v63q0 19 8.5 26t30.5 7h115v1155h-123q-22 0 -30.5 7t-8.5 26zM176 1765l43 66 q11 19 25.5 20t34.5 -12l284 -182q26 -18 10 -47l-24 -43q-17 -28 -51 -11l-310 156q-37 18 -12 53z" />
<glyph unicode="&#xcd;" horiz-adv-x="759" d="M127 1317v61q0 19 8.5 26t30.5 7h428q22 0 30.5 -7t8.5 -26v-61q0 -19 -8.5 -26t-30.5 -7h-121v-1155h119q22 0 30.5 -7t8.5 -26v-63q0 -19 -8.5 -26t-30.5 -7h-418q-22 0 -30.5 7t-8.5 26v63q0 19 8.5 26t30.5 7h115v1155h-123q-22 0 -30.5 7t-8.5 26zM215 1606 q-18 32 10 49l289 186q18 13 32 12t27 -20l41 -68q11 -13 8.5 -28.5t-20.5 -22.5l-313 -162q-30 -15 -49 13z" />
<glyph unicode="&#xce;" horiz-adv-x="759" d="M100 1585q-19 22 2 43l215 195q19 16 43 16h37q24 0 41 -14l226 -201q21 -21 2 -43l-31 -33q-23 -23 -45 -4l-211 166l-199 -156q-30 -24 -51 0zM127 1317v61q0 19 8.5 26t30.5 7h428q22 0 30.5 -7t8.5 -26v-61q0 -19 -8.5 -26t-30.5 -7h-121v-1155h119q22 0 30.5 -7 t8.5 -26v-63q0 -19 -8.5 -26t-30.5 -7h-418q-22 0 -30.5 7t-8.5 26v63q0 19 8.5 26t30.5 7h115v1155h-123q-22 0 -30.5 7t-8.5 26z" />
<glyph unicode="&#xcf;" horiz-adv-x="759" d="M98 1671q0 47 31.5 74t75.5 27q42 0 72 -27t30 -72q0 -47 -30 -73.5t-74 -26.5q-42 0 -73.5 26.5t-31.5 71.5zM127 1317v61q0 19 8.5 26t30.5 7h428q22 0 30.5 -7t8.5 -26v-61q0 -19 -8.5 -26t-30.5 -7h-121v-1155h119q22 0 30.5 -7t8.5 -26v-63q0 -19 -8.5 -26t-30.5 -7 h-418q-22 0 -30.5 7t-8.5 26v63q0 19 8.5 26t30.5 7h115v1155h-123q-22 0 -30.5 7t-8.5 26zM461 1671q0 47 31 74t75 27q42 0 72.5 -27t30.5 -72q0 -47 -30.5 -73.5t-74.5 -26.5q-42 0 -73 26.5t-31 71.5z" />
<glyph unicode="&#xd0;" horiz-adv-x="1404" d="M6 666v57q0 26 9 35.5t34 9.5h139v596q0 47 43 47h275q200 0 314.5 -21.5t209.5 -80.5q133 -83 207 -240.5t74 -370.5q0 -174 -54.5 -314.5t-156.5 -233.5q-169 -150 -504 -150h-365q-43 0 -43 47v576h-139q-24 0 -33.5 9.5t-9.5 33.5zM379 152h176q149 0 242.5 23.5 t160.5 90.5q150 153 150 434q0 150 -44.5 270.5t-129.5 188.5q-121 98 -361 98h-194v-489h254q25 0 34 -9.5t9 -35.5v-57q0 -24 -9.5 -33.5t-33.5 -9.5h-254v-471z" />
<glyph unicode="&#xd1;" horiz-adv-x="1421" d="M156 41v1329q0 41 39 41h81q44 0 70 -41l739 -1059h5v1059q0 41 38 41h97q22 0 31.5 -9t9.5 -32v-1329q0 -41 -39 -41h-90q-44 0 -70 41l-731 1044h-4v-1044q0 -41 -39 -41h-96q-22 0 -31.5 9t-9.5 32zM375 1657q26 69 83.5 102t131.5 33q39 0 69.5 -8.5t79.5 -32.5 l49 -25q54 -26 97 -26q45 0 73 47q23 41 60 22l41 -20q22 -11 12 -43q-24 -69 -79 -105t-124 -36q-62 0 -157 45l-47 22q-60 29 -91 29q-37 0 -54.5 -12t-33.5 -43q-18 -36 -53 -19l-41 21q-31 12 -16 49z" />
<glyph unicode="&#xd2;" horiz-adv-x="1384" d="M100 700q0 332 166 534t434 202q185 0 318 -92t199.5 -253.5t66.5 -375.5q0 -171 -46 -310.5t-127 -232t-191 -142.5t-238 -50q-274 0 -428 192t-154 528zM301 707q0 -269 102.5 -420.5t286.5 -151.5q175 0 284 156.5t109 417.5q0 271 -100 420t-287 149 q-177 0 -286 -158.5t-109 -412.5zM487 1765l43 66q11 19 25.5 20t34.5 -12l284 -182q27 -19 11 -47l-25 -43q-17 -28 -51 -11l-309 156q-37 18 -13 53z" />
<glyph unicode="&#xd3;" horiz-adv-x="1384" d="M100 700q0 332 166 534t434 202q185 0 318 -92t199.5 -253.5t66.5 -375.5q0 -171 -46 -310.5t-127 -232t-191 -142.5t-238 -50q-274 0 -428 192t-154 528zM301 707q0 -269 102.5 -420.5t286.5 -151.5q175 0 284 156.5t109 417.5q0 271 -100 420t-287 149 q-177 0 -286 -158.5t-109 -412.5zM526 1606q-18 32 11 49l288 186q18 13 32.5 12t27.5 -20l41 -68q11 -13 8 -28.5t-21 -22.5l-313 -162q-30 -15 -49 13z" />
<glyph unicode="&#xd4;" horiz-adv-x="1384" d="M100 700q0 332 166 534t434 202q185 0 318 -92t199.5 -253.5t66.5 -375.5q0 -171 -46 -310.5t-127 -232t-191 -142.5t-238 -50q-274 0 -428 192t-154 528zM301 707q0 -269 102.5 -420.5t286.5 -151.5q175 0 284 156.5t109 417.5q0 271 -100 420t-287 149 q-177 0 -286 -158.5t-109 -412.5zM418 1585q-19 22 2 43l215 195q19 16 43 16h37q24 0 41 -14l225 -201q21 -21 2 -43l-31 -33q-23 -23 -45 -4l-211 166l-198 -156q-31 -24 -52 0z" />
<glyph unicode="&#xd5;" horiz-adv-x="1384" d="M100 700q0 332 166 534t434 202q185 0 318 -92t199.5 -253.5t66.5 -375.5q0 -171 -46 -310.5t-127 -232t-191 -142.5t-238 -50q-274 0 -428 192t-154 528zM301 707q0 -269 102.5 -420.5t286.5 -151.5q175 0 284 156.5t109 417.5q0 271 -100 420t-287 149 q-177 0 -286 -158.5t-109 -412.5zM352 1657q26 69 83.5 102t131.5 33q39 0 70 -8.5t80 -32.5l49 -25q54 -26 96 -26q46 0 74 47q23 41 59 22l41 -20q23 -12 13 -43q-24 -69 -79 -105t-124 -36q-63 0 -158 45l-47 22q-60 29 -90 29q-37 0 -54.5 -12t-33.5 -43 q-18 -36 -53 -19l-41 21q-32 13 -17 49z" />
<glyph unicode="&#xd6;" horiz-adv-x="1384" d="M100 700q0 332 166 534t434 202q185 0 318 -92t199.5 -253.5t66.5 -375.5q0 -171 -46 -310.5t-127 -232t-191 -142.5t-238 -50q-274 0 -428 192t-154 528zM301 707q0 -269 102.5 -420.5t286.5 -151.5q175 0 284 156.5t109 417.5q0 271 -100 420t-287 149 q-177 0 -286 -158.5t-109 -412.5zM416 1671q0 47 31 74t75 27q42 0 72.5 -27t30.5 -72q0 -47 -30.5 -73.5t-74.5 -26.5q-42 0 -73 26.5t-31 71.5zM778 1671q0 47 31.5 74t75.5 27q42 0 72 -27t30 -72q0 -47 -30 -73.5t-74 -26.5q-42 0 -73.5 26.5t-31.5 71.5z" />
<glyph unicode="&#xd7;" d="M186 846l62 63q26 27 53 0l266 -264l258 258q27 27 54 0l57 -57q23 -26 -2 -51l-260 -260l262 -261q25 -25 2 -51l-61 -63q-27 -27 -54 0l-262 262l-262 -260q-27 -26 -53 0l-56 57q-23 25 3 51l260 260l-265 265q-25 25 -2 51z" />
<glyph unicode="&#xd8;" horiz-adv-x="1384" d="M100 700q0 332 166 534t434 202q198 0 336 -107l99 150q14 22 27 25t26 -7l53 -35q28 -17 6 -51l-114 -176q151 -196 151 -520q0 -171 -46 -310.5t-127 -232t-191 -142.5t-238 -50q-182 0 -315 88l-84 -129q-23 -36 -54 -19l-53 35q-28 17 -6 51l98 150 q-168 193 -168 544zM301 707q0 -237 78 -381l561 856q-99 96 -244 96q-177 0 -286 -158.5t-109 -412.5zM465 215q89 -80 225 -80q175 0 284 156.5t109 417.5q0 213 -63 354z" />
<glyph unicode="&#xd9;" horiz-adv-x="1423" d="M150 629v741q0 41 38 41h111q22 0 31.5 -9t9.5 -32v-723q0 -66 3 -115.5t12 -105t25.5 -95.5t44.5 -79t67 -62.5t95.5 -38t127.5 -14.5q69 0 123.5 15t93 40t66 64t44 80t26 96.5t12.5 105t3 111.5v721q0 41 39 41h111q22 0 31.5 -9t9.5 -32v-754q0 -145 -31 -258.5 t-96.5 -199.5t-175 -132t-258.5 -46q-131 0 -229 30t-161.5 83t-102 135.5t-54.5 179t-16 221.5zM504 1765l43 66q11 19 25 20t34 -12l285 -182q26 -18 10 -47l-24 -43q-17 -28 -52 -11l-309 156q-37 18 -12 53z" />
<glyph unicode="&#xda;" horiz-adv-x="1423" d="M150 629v741q0 41 38 41h111q22 0 31.5 -9t9.5 -32v-723q0 -66 3 -115.5t12 -105t25.5 -95.5t44.5 -79t67 -62.5t95.5 -38t127.5 -14.5q69 0 123.5 15t93 40t66 64t44 80t26 96.5t12.5 105t3 111.5v721q0 41 39 41h111q22 0 31.5 -9t9.5 -32v-754q0 -145 -31 -258.5 t-96.5 -199.5t-175 -132t-258.5 -46q-131 0 -229 30t-161.5 83t-102 135.5t-54.5 179t-16 221.5zM541 1606q-18 32 10 49l289 186q18 13 32 12t27 -20l41 -68q11 -13 8.5 -28.5t-20.5 -22.5l-314 -162q-30 -15 -49 13z" />
<glyph unicode="&#xdb;" horiz-adv-x="1423" d="M150 629v741q0 41 38 41h111q22 0 31.5 -9t9.5 -32v-723q0 -66 3 -115.5t12 -105t25.5 -95.5t44.5 -79t67 -62.5t95.5 -38t127.5 -14.5q69 0 123.5 15t93 40t66 64t44 80t26 96.5t12.5 105t3 111.5v721q0 41 39 41h111q22 0 31.5 -9t9.5 -32v-754q0 -145 -31 -258.5 t-96.5 -199.5t-175 -132t-258.5 -46q-131 0 -229 30t-161.5 83t-102 135.5t-54.5 179t-16 221.5zM430 1585q-19 22 2 43l215 195q19 16 43 16h37q24 0 41 -14l225 -201q21 -21 2 -43l-30 -33q-23 -23 -45 -4l-211 166l-199 -156q-30 -24 -51 0z" />
<glyph unicode="&#xdc;" horiz-adv-x="1423" d="M150 629v741q0 41 38 41h111q22 0 31.5 -9t9.5 -32v-723q0 -66 3 -115.5t12 -105t25.5 -95.5t44.5 -79t67 -62.5t95.5 -38t127.5 -14.5q69 0 123.5 15t93 40t66 64t44 80t26 96.5t12.5 105t3 111.5v721q0 41 39 41h111q22 0 31.5 -9t9.5 -32v-754q0 -145 -31 -258.5 t-96.5 -199.5t-175 -132t-258.5 -46q-131 0 -229 30t-161.5 83t-102 135.5t-54.5 179t-16 221.5zM428 1671q0 47 31.5 74t75.5 27q42 0 72 -27t30 -72q0 -47 -30.5 -73.5t-74.5 -26.5q-42 0 -73 26.5t-31 71.5zM791 1671q0 47 31 74t75 27q42 0 72 -27t30 -72 q0 -47 -30 -73.5t-74 -26.5q-42 0 -73 26.5t-31 71.5z" />
<glyph unicode="&#xdd;" d="M40 1396.5q6 14.5 30 14.5h116q27 0 39 -7t23 -28l336 -663h2l325 663q9 19 22 27t38 8h88q23 0 29.5 -12t-3.5 -31l-415 -811v-516q0 -41 -39 -41h-111q-22 0 -31.5 9t-9.5 32v512l-434 809q-11 20 -5 34.5zM410 1606q-18 32 10 49l289 186q18 13 32 12t27 -20l41 -68 q11 -13 8.5 -28.5t-20.5 -22.5l-314 -162q-30 -15 -49 13z" />
<glyph unicode="&#xde;" horiz-adv-x="1062" d="M156 41v1329q0 41 39 41h110q22 0 31.5 -9t9.5 -32v-174h117q119 0 214 -23.5t168.5 -73.5t113.5 -134.5t40 -198.5q0 -115 -39 -201.5t-111 -139.5t-167.5 -79.5t-214.5 -26.5h-121v-278q0 -41 -39 -41h-110q-22 0 -31.5 9t-9.5 32zM346 465h127q161 0 247.5 68 t86.5 229q0 157 -92 223t-256 66h-113v-586z" />
<glyph unicode="&#xdf;" horiz-adv-x="1142" d="M137 -150v1178q0 102 22.5 181.5t71 140.5t130.5 94t194 33q86 0 160 -21t133 -63t93 -112.5t34 -162.5q0 -109 -65.5 -202.5t-172.5 -120.5v-2q145 -18 240.5 -120.5t95.5 -252.5q0 -111 -39 -197t-106 -138t-150 -78.5t-178 -26.5q-72 0 -102 6q-25 6 -32 14t-7 29v57 q0 22 9 28.5t32 6.5q6 0 38.5 -3t49.5 -3q153 0 229 87.5t76 221.5q0 72 -28.5 128t-75.5 89t-103 49.5t-117 16.5h-77q-18 0 -25.5 7.5t-7.5 24.5v66q0 18 7.5 25.5t25.5 7.5h30q107 0 190 71t83 191q0 121 -64.5 181t-185.5 60q-110 0 -172 -74.5t-62 -217.5v-1199 q0 -43 -41 -43h-92q-41 0 -41 43z" />
<glyph unicode="&#xe0;" horiz-adv-x="1112" d="M78 477q0 125 35.5 227.5t95.5 169t138.5 102.5t166.5 36q80 0 155 -33t119 -92l3 65q0 37 38 37h91q38 0 38 -39v-717q0 -63 8 -86.5t38 -23.5h8q19 0 27 -7t8 -24v-61q0 -17 -8 -24t-27 -7h-82q-64 0 -98.5 43.5t-34.5 108.5h-4q-36 -69 -126 -120.5t-182 -51.5 q-103 0 -182.5 41t-127.5 111.5t-72.5 158t-24.5 186.5zM260 489q0 -167 70 -265.5t182 -98.5q93 0 167.5 62t104.5 145v393q-36 68 -104 107.5t-143 39.5q-122 0 -199.5 -102t-77.5 -281zM326 1356l43 65q11 19 25 20.5t34 -11.5l285 -183q26 -18 10 -47l-25 -43 q-16 -27 -51 -10l-309 156q-37 18 -12 53z" />
<glyph unicode="&#xe1;" horiz-adv-x="1112" d="M78 477q0 125 35.5 227.5t95.5 169t138.5 102.5t166.5 36q80 0 155 -33t119 -92l3 65q0 37 38 37h91q38 0 38 -39v-717q0 -63 8 -86.5t38 -23.5h8q19 0 27 -7t8 -24v-61q0 -17 -8 -24t-27 -7h-82q-64 0 -98.5 43.5t-34.5 108.5h-4q-36 -69 -126 -120.5t-182 -51.5 q-103 0 -182.5 41t-127.5 111.5t-72.5 158t-24.5 186.5zM260 489q0 -167 70 -265.5t182 -98.5q93 0 167.5 62t104.5 145v393q-36 68 -104 107.5t-143 39.5q-122 0 -199.5 -102t-77.5 -281zM365 1196q-18 32 10 49l289 187q18 13 32 11.5t27 -20.5l41 -67q11 -13 8.5 -28.5 t-20.5 -22.5l-314 -162q-31 -15 -49 12z" />
<glyph unicode="&#xe2;" horiz-adv-x="1112" d="M78 477q0 125 35.5 227.5t95.5 169t138.5 102.5t166.5 36q80 0 155 -33t119 -92l3 65q0 37 38 37h91q38 0 38 -39v-717q0 -63 8 -86.5t38 -23.5h8q19 0 27 -7t8 -24v-61q0 -17 -8 -24t-27 -7h-82q-64 0 -98.5 43.5t-34.5 108.5h-4q-36 -69 -126 -120.5t-182 -51.5 q-103 0 -182.5 41t-127.5 111.5t-72.5 158t-24.5 186.5zM246 1176q-19 22 2 43l215 194q20 17 43 17h37q23 0 41 -15l225 -201q21 -21 2 -43l-31 -32q-23 -23 -45 -4l-211 165l-198 -155q-31 -24 -52 0zM260 489q0 -167 70 -265.5t182 -98.5q93 0 167.5 62t104.5 145v393 q-36 68 -104 107.5t-143 39.5q-122 0 -199.5 -102t-77.5 -281z" />
<glyph unicode="&#xe3;" horiz-adv-x="1112" d="M78 477q0 125 35.5 227.5t95.5 169t138.5 102.5t166.5 36q80 0 155 -33t119 -92l3 65q0 37 38 37h91q38 0 38 -39v-717q0 -63 8 -86.5t38 -23.5h8q19 0 27 -7t8 -24v-61q0 -17 -8 -24t-27 -7h-82q-64 0 -98.5 43.5t-34.5 108.5h-4q-36 -69 -126 -120.5t-182 -51.5 q-103 0 -182.5 41t-127.5 111.5t-72.5 158t-24.5 186.5zM190 1257q26 69 84 102.5t132 33.5q39 0 69.5 -8.5t79.5 -32.5l49 -25q56 -27 96 -27q46 0 74 48q23 41 60 22l40 -20q23 -12 13 -43q-24 -69 -79 -105.5t-124 -36.5q-63 0 -158 45l-47 23q-60 29 -90 29 q-36 0 -54 -12.5t-34 -43.5q-18 -35 -53 -18l-41 20q-32 13 -17 49zM260 489q0 -167 70 -265.5t182 -98.5q93 0 167.5 62t104.5 145v393q-36 68 -104 107.5t-143 39.5q-122 0 -199.5 -102t-77.5 -281z" />
<glyph unicode="&#xe4;" horiz-adv-x="1112" d="M78 477q0 125 35.5 227.5t95.5 169t138.5 102.5t166.5 36q80 0 155 -33t119 -92l3 65q0 37 38 37h91q38 0 38 -39v-717q0 -63 8 -86.5t38 -23.5h8q19 0 27 -7t8 -24v-61q0 -17 -8 -24t-27 -7h-82q-64 0 -98.5 43.5t-34.5 108.5h-4q-36 -69 -126 -120.5t-182 -51.5 q-103 0 -182.5 41t-127.5 111.5t-72.5 158t-24.5 186.5zM238 1292q0 47 31 74t75 27q42 0 72 -27t30 -72q0 -47 -30 -73.5t-74 -26.5q-42 0 -73 26.5t-31 71.5zM260 489q0 -167 70 -265.5t182 -98.5q93 0 167.5 62t104.5 145v393q-36 68 -104 107.5t-143 39.5 q-122 0 -199.5 -102t-77.5 -281zM600 1292q0 47 31.5 74t75.5 27q42 0 72 -27t30 -72q0 -47 -30 -73.5t-74 -26.5q-42 0 -73.5 26.5t-31.5 71.5z" />
<glyph unicode="&#xe5;" horiz-adv-x="1112" d="M78 477q0 125 35.5 227.5t95.5 169t138.5 102.5t166.5 36q80 0 155 -33t119 -92l3 65q0 37 38 37h91q38 0 38 -39v-717q0 -63 8 -86.5t38 -23.5h8q19 0 27 -7t8 -24v-61q0 -17 -8 -24t-27 -7h-82q-64 0 -98.5 43.5t-34.5 108.5h-4q-36 -69 -126 -120.5t-182 -51.5 q-103 0 -182.5 41t-127.5 111.5t-72.5 158t-24.5 186.5zM260 489q0 -167 70 -265.5t182 -98.5q93 0 167.5 62t104.5 145v393q-36 68 -104 107.5t-143 39.5q-122 0 -199.5 -102t-77.5 -281zM336 1270q0 79 56.5 135.5t137.5 56.5q85 0 140 -56t55 -136t-55 -136.5t-140 -56.5 q-82 0 -138 57t-56 136zM453 1270q0 -32 22.5 -54t54.5 -22t55 22t23 54t-23 54t-55 22t-54.5 -22t-22.5 -54z" />
<glyph unicode="&#xe6;" horiz-adv-x="1579" d="M74 264q0 79 33.5 141.5t86 100t124 62t140 33.5t142.5 9h64v58q0 103 -45 157t-148 54q-140 0 -270 -66q-30 -15 -41 10l-27 64q-10 29 19 43q157 82 335 82q204 0 291 -146q127 146 340 146q126 0 216.5 -59.5t133.5 -156t43 -218.5v-52q0 -36 -11 -46.5t-50 -10.5 h-612q5 -152 84.5 -249t222.5 -97q150 0 244 43q35 15 45 -14l24 -68q6 -17 1.5 -26.5t-21.5 -18.5q-115 -59 -318 -59q-234 0 -356 153q-63 -69 -161 -111t-222 -42q-83 0 -151.5 30.5t-112 96.5t-43.5 157zM254 274q0 -79 49.5 -119t122.5 -40q75 0 155 37t124 81 q-50 112 -50 256h-86q-60 0 -111.5 -9.5t-99.5 -32t-76 -67t-28 -106.5zM842 588h497v37q0 110 -59 181t-170 71q-118 0 -187.5 -82t-80.5 -207z" />
<glyph unicode="&#xe7;" horiz-adv-x="901" d="M82 494q0 230 131.5 374t357.5 144q148 0 265 -60q29 -16 18 -43l-23 -63q-10 -30 -43 -17q-105 48 -208 48q-146 0 -232 -101.5t-86 -273.5q0 -81 18 -149.5t54 -123t96.5 -85.5t140.5 -31q123 0 228 47q31 13 41 -17l18 -57q7 -18 2.5 -29t-24.5 -20q-98 -45 -224 -55 l-4 -70h25q86 0 133 -40.5t47 -121.5q0 -74 -54.5 -121t-164.5 -47q-95 0 -150 27q-26 13 -18 37l16 47q10 30 41 16q44 -18 107 -18q34 0 54 14.5t20 42.5q0 59 -82 59h-60q-37 0 -47.5 15t-5.5 51l12 111q-196 23 -297.5 158t-101.5 352z" />
<glyph unicode="&#xe8;" horiz-adv-x="1021" d="M82 496q0 229 127 372.5t344 143.5q97 0 174.5 -34t126.5 -94t74.5 -138t25.5 -168v-52q0 -36 -11 -46.5t-50 -10.5h-629q5 -152 87 -249t229 -97q154 0 251 43q36 16 46 -14l24 -68q6 -17 1.5 -26.5t-21.5 -18.5q-115 -59 -324 -59q-228 0 -351.5 140t-123.5 376z M268 588h514v37q0 110 -61 181t-176 71q-122 0 -194 -82t-83 -207zM332 1356l43 65q11 19 25 20.5t34 -11.5l285 -183q26 -18 10 -47l-24 -43q-17 -28 -52 -10l-309 156q-37 18 -12 53z" />
<glyph unicode="&#xe9;" horiz-adv-x="1021" d="M82 496q0 229 127 372.5t344 143.5q97 0 174.5 -34t126.5 -94t74.5 -138t25.5 -168v-52q0 -36 -11 -46.5t-50 -10.5h-629q5 -152 87 -249t229 -97q154 0 251 43q36 16 46 -14l24 -68q6 -17 1.5 -26.5t-21.5 -18.5q-115 -59 -324 -59q-228 0 -351.5 140t-123.5 376z M268 588h514v37q0 110 -61 181t-176 71q-122 0 -194 -82t-83 -207zM354 1190q-18 32 11 49l288 186q18 13 32.5 12t27.5 -20l41 -67q11 -13 8 -29t-21 -23l-313 -161q-31 -15 -49 12z" />
<glyph unicode="&#xea;" horiz-adv-x="1021" d="M82 496q0 229 127 372.5t344 143.5q97 0 174.5 -34t126.5 -94t74.5 -138t25.5 -168v-52q0 -36 -11 -46.5t-50 -10.5h-629q5 -152 87 -249t229 -97q154 0 251 43q36 16 46 -14l24 -68q6 -17 1.5 -26.5t-21.5 -18.5q-115 -59 -324 -59q-228 0 -351.5 140t-123.5 376z M260 1176q-19 22 2 43l215 194q20 17 43 17h37q23 0 41 -15l225 -201q21 -21 2 -43l-30 -32q-23 -23 -45 -4l-211 165l-199 -155q-30 -24 -51 0zM268 588h514v37q0 110 -61 181t-176 71q-122 0 -194 -82t-83 -207z" />
<glyph unicode="&#xeb;" horiz-adv-x="1021" d="M82 496q0 229 127 372.5t344 143.5q97 0 174.5 -34t126.5 -94t74.5 -138t25.5 -168v-52q0 -36 -11 -46.5t-50 -10.5h-629q5 -152 87 -249t229 -97q154 0 251 43q36 16 46 -14l24 -68q6 -17 1.5 -26.5t-21.5 -18.5q-115 -59 -324 -59q-228 0 -351.5 140t-123.5 376z M256 1294q0 47 31 74t75 27q42 0 72.5 -27t30.5 -72q0 -47 -30.5 -73.5t-74.5 -26.5q-42 0 -73 26.5t-31 71.5zM268 588h514v37q0 110 -61 181t-176 71q-122 0 -194 -82t-83 -207zM618 1294q0 47 31.5 74t75.5 27q42 0 72 -27t30 -72q0 -47 -30 -73.5t-74 -26.5 q-42 0 -73.5 26.5t-31.5 71.5z" />
<glyph unicode="&#xec;" horiz-adv-x="481" d="M37 1356l43 65q11 19 25 20.5t34 -11.5l285 -183q26 -18 10 -47l-24 -43q-17 -28 -52 -10l-309 156q-37 18 -12 53zM154 43v905q0 41 41 41h94q39 0 39 -41v-905q0 -43 -41 -43h-92q-41 0 -41 43z" />
<glyph unicode="&#xed;" horiz-adv-x="481" d="M68 1190q-18 32 10 49l289 186q18 13 32 12t27 -20l41 -67q11 -13 8.5 -29t-20.5 -23l-314 -161q-31 -15 -49 12zM154 43v905q0 41 41 41h94q39 0 39 -41v-905q0 -43 -41 -43h-92q-41 0 -41 43z" />
<glyph unicode="&#xee;" horiz-adv-x="481" d="M-41 1176q-19 22 2 43l215 194q20 17 43 17h37q23 0 41 -15l225 -201q21 -21 2 -43l-30 -32q-23 -23 -45 -4l-211 165l-199 -155q-30 -24 -51 0zM154 43v905q0 41 41 41h94q39 0 39 -41v-905q0 -43 -41 -43h-92q-41 0 -41 43z" />
<glyph unicode="&#xef;" horiz-adv-x="481" d="M-41 1292q0 47 31.5 74t75.5 27q42 0 72 -27t30 -72q0 -47 -30.5 -73.5t-74.5 -26.5q-42 0 -73 26.5t-31 71.5zM154 43v905q0 41 41 41h94q39 0 39 -41v-905q0 -43 -41 -43h-92q-41 0 -41 43zM322 1292q0 47 31 74t75 27q42 0 72 -27t30 -72q0 -47 -30 -73.5t-74 -26.5 q-42 0 -73 26.5t-31 71.5z" />
<glyph unicode="&#xf0;" horiz-adv-x="1099" d="M82 498q0 146 53 261t161.5 184t256.5 69q144 0 229 -78q-32 85 -102.5 184.5t-140.5 159.5l-172 -109q-18 -12 -29 -10.5t-23 19.5l-18 26q-11 19 -8.5 30t20.5 23l146 93q-55 40 -144 82q-30 13 -16 41l27 47q9 17 18.5 20.5t24.5 -2.5q104 -39 208 -113l148 93 q17 11 28 9t23 -20l19 -28q11 -19 8 -28.5t-23 -20.5l-114 -74q147 -134 249.5 -363.5t102.5 -468.5q0 -113 -30 -210.5t-87 -172.5t-148.5 -118t-207.5 -43t-205 39.5t-144 110t-82.5 163.5t-27.5 205zM262 502q0 -59 8 -112.5t28.5 -104.5t51.5 -88t80.5 -59.5 t112.5 -22.5q77 0 135.5 32t91 87t48.5 120t16 140t-15 140.5t-46.5 121.5t-88 88.5t-133.5 32.5q-64 0 -114.5 -22t-83 -58t-53.5 -85.5t-29.5 -101t-8.5 -108.5z" />
<glyph unicode="&#xf1;" horiz-adv-x="1101" d="M137 43v905q0 22 9 31.5t30 9.5h90q39 0 39 -37l2 -63q70 59 158 91t178 32q326 0 326 -367v-602q0 -43 -41 -43h-92q-41 0 -41 43v573q0 58 -8.5 100.5t-30 78t-62 53.5t-100.5 18q-69 0 -148.5 -33.5t-134.5 -84.5v-705q0 -43 -41 -43h-92q-41 0 -41 43zM213 1255 q26 69 84 102.5t131 33.5q39 0 70 -8.5t80 -32.5l49 -25q56 -27 96 -27q46 0 74 48q23 41 59 22l41 -20q22 -11 12 -43q-24 -69 -78.5 -105.5t-123.5 -36.5q-63 0 -158 45l-47 23q-60 29 -90 29q-36 0 -54 -12.5t-34 -43.5q-18 -35 -54 -18l-41 20q-31 12 -16 49z" />
<glyph unicode="&#xf2;" horiz-adv-x="1095" d="M82 498q0 146 53 261t161.5 184t256.5 69q154 0 259.5 -68t153.5 -182t48 -266q0 -146 -53.5 -261.5t-162.5 -185t-257 -69.5q-116 0 -205 39.5t-144 110t-82.5 163.5t-27.5 205zM262 502q0 -59 8 -112.5t28.5 -104.5t51.5 -88t80.5 -59.5t112.5 -22.5q77 0 135.5 32 t91 87t48.5 120t16 140t-15 140.5t-46.5 121.5t-88 88.5t-133.5 32.5q-64 0 -114.5 -22t-83 -58t-53.5 -85.5t-29.5 -101t-8.5 -108.5zM342 1356l43 65q11 19 25 20.5t34 -11.5l285 -183q26 -18 10 -47l-24 -43q-16 -27 -51 -10l-310 156q-37 18 -12 53z" />
<glyph unicode="&#xf3;" horiz-adv-x="1095" d="M82 498q0 146 53 261t161.5 184t256.5 69q154 0 259.5 -68t153.5 -182t48 -266q0 -146 -53.5 -261.5t-162.5 -185t-257 -69.5q-116 0 -205 39.5t-144 110t-82.5 163.5t-27.5 205zM262 502q0 -59 8 -112.5t28.5 -104.5t51.5 -88t80.5 -59.5t112.5 -22.5q77 0 135.5 32 t91 87t48.5 120t16 140t-15 140.5t-46.5 121.5t-88 88.5t-133.5 32.5q-64 0 -114.5 -22t-83 -58t-53.5 -85.5t-29.5 -101t-8.5 -108.5zM385 1190q-18 32 10 49l289 186q18 13 32 12t27 -20l41 -67q11 -13 8.5 -29t-20.5 -23l-313 -161q-31 -15 -49 12z" />
<glyph unicode="&#xf4;" horiz-adv-x="1095" d="M82 498q0 146 53 261t161.5 184t256.5 69q154 0 259.5 -68t153.5 -182t48 -266q0 -146 -53.5 -261.5t-162.5 -185t-257 -69.5q-116 0 -205 39.5t-144 110t-82.5 163.5t-27.5 205zM262 502q0 -59 8 -112.5t28.5 -104.5t51.5 -88t80.5 -59.5t112.5 -22.5q77 0 135.5 32 t91 87t48.5 120t16 140t-15 140.5t-46.5 121.5t-88 88.5t-133.5 32.5q-64 0 -114.5 -22t-83 -58t-53.5 -85.5t-29.5 -101t-8.5 -108.5zM272 1176q-19 22 2 43l215 194q20 17 43 17h37q23 0 41 -15l226 -201q21 -21 2 -43l-31 -32q-23 -23 -45 -4l-211 165l-199 -155 q-30 -24 -51 0z" />
<glyph unicode="&#xf5;" horiz-adv-x="1095" d="M82 498q0 146 53 261t161.5 184t256.5 69q154 0 259.5 -68t153.5 -182t48 -266q0 -146 -53.5 -261.5t-162.5 -185t-257 -69.5q-116 0 -205 39.5t-144 110t-82.5 163.5t-27.5 205zM205 1255q26 69 84 102.5t131 33.5q39 0 69.5 -8.5t79.5 -32.5l49 -25q56 -27 97 -27 q45 0 73 48q23 41 60 22l41 -20q22 -11 12 -43q-24 -69 -79 -105.5t-124 -36.5q-62 0 -157 45l-47 23q-60 29 -91 29q-36 0 -54 -12.5t-34 -43.5q-18 -35 -53 -18l-41 20q-31 12 -16 49zM262 502q0 -59 8 -112.5t28.5 -104.5t51.5 -88t80.5 -59.5t112.5 -22.5q77 0 135.5 32 t91 87t48.5 120t16 140t-15 140.5t-46.5 121.5t-88 88.5t-133.5 32.5q-64 0 -114.5 -22t-83 -58t-53.5 -85.5t-29.5 -101t-8.5 -108.5z" />
<glyph unicode="&#xf6;" horiz-adv-x="1095" d="M82 498q0 146 53 261t161.5 184t256.5 69q154 0 259.5 -68t153.5 -182t48 -266q0 -146 -53.5 -261.5t-162.5 -185t-257 -69.5q-116 0 -205 39.5t-144 110t-82.5 163.5t-27.5 205zM262 502q0 -59 8 -112.5t28.5 -104.5t51.5 -88t80.5 -59.5t112.5 -22.5q77 0 135.5 32 t91 87t48.5 120t16 140t-15 140.5t-46.5 121.5t-88 88.5t-133.5 32.5q-64 0 -114.5 -22t-83 -58t-53.5 -85.5t-29.5 -101t-8.5 -108.5zM268 1294q0 47 31.5 74t75.5 27q42 0 72 -27t30 -72q0 -47 -30 -73.5t-74 -26.5q-42 0 -73.5 26.5t-31.5 71.5zM631 1294q0 47 31 74 t75 27q42 0 72.5 -27t30.5 -72q0 -47 -30.5 -73.5t-74.5 -26.5q-42 0 -73 26.5t-31 71.5z" />
<glyph unicode="&#xf7;" d="M117 494v86q0 18 8.5 25t28.5 7h819q20 0 28.5 -7t8.5 -25v-86q0 -33 -37 -33h-819q-37 0 -37 33zM446 184q0 53 35 83t84 30q47 0 82 -30t35 -81q0 -53 -35 -82.5t-84 -29.5q-48 0 -82.5 29.5t-34.5 80.5zM446 895q0 53 35 83t84 30q47 0 82 -30t35 -81q0 -53 -35 -83 t-84 -30q-47 0 -82 30t-35 81z" />
<glyph unicode="&#xf8;" horiz-adv-x="1107" d="M88 498q0 146 53 261t161.5 184t256.5 69q115 0 199 -37l41 67q20 36 55 17l55 -31q32 -17 13 -51l-48 -76q146 -137 146 -405q0 -146 -53.5 -261.5t-162.5 -185t-257 -69.5q-117 0 -211 40l-43 -71q-20 -33 -49 -15l-58 35q-36 19 -14 51l49 82q-133 139 -133 396z M268 502q0 -149 47 -246l365 594q-59 27 -123 27t-114.5 -22t-83 -58t-53.5 -85.5t-29.5 -101t-8.5 -108.5zM414 147q59 -32 135 -32q77 0 135.5 32t91 87t48.5 120t16 140q0 154 -58 256z" />
<glyph unicode="&#xf9;" horiz-adv-x="1093" d="M137 350v598q0 41 41 41h94q39 0 39 -41v-571q0 -122 41.5 -185t155.5 -63q64 0 140.5 36t129.5 85v698q0 41 41 41h94q39 0 39 -41v-907q0 -22 -9 -31.5t-30 -9.5h-90q-39 0 -39 37l-2 65q-143 -122 -323 -122q-322 0 -322 370zM328 1356l43 65q11 19 25 20.5t34 -11.5 l285 -183q26 -18 10 -47l-25 -43q-16 -27 -51 -10l-309 156q-37 18 -12 53z" />
<glyph unicode="&#xfa;" horiz-adv-x="1093" d="M137 350v598q0 41 41 41h94q39 0 39 -41v-571q0 -122 41.5 -185t155.5 -63q64 0 140.5 36t129.5 85v698q0 41 41 41h94q39 0 39 -41v-907q0 -22 -9 -31.5t-30 -9.5h-90q-39 0 -39 37l-2 65q-143 -122 -323 -122q-322 0 -322 370zM352 1190q-18 32 10 49l289 186 q18 13 32.5 12t27.5 -20l41 -67q11 -13 8 -29t-21 -23l-313 -161q-31 -15 -49 12z" />
<glyph unicode="&#xfb;" horiz-adv-x="1093" d="M137 350v598q0 41 41 41h94q39 0 39 -41v-571q0 -122 41.5 -185t155.5 -63q64 0 140.5 36t129.5 85v698q0 41 41 41h94q39 0 39 -41v-907q0 -22 -9 -31.5t-30 -9.5h-90q-39 0 -39 37l-2 65q-143 -122 -323 -122q-322 0 -322 370zM264 1176q-19 22 2 43l215 194 q20 17 43 17h37q23 0 41 -15l225 -201q21 -21 2 -43l-30 -32q-23 -23 -45 -4l-211 165l-199 -155q-30 -24 -51 0z" />
<glyph unicode="&#xfc;" horiz-adv-x="1093" d="M137 350v598q0 41 41 41h94q39 0 39 -41v-571q0 -122 41.5 -185t155.5 -63q64 0 140.5 36t129.5 85v698q0 41 41 41h94q39 0 39 -41v-907q0 -22 -9 -31.5t-30 -9.5h-90q-39 0 -39 37l-2 65q-143 -122 -323 -122q-322 0 -322 370zM252 1290q0 47 31 74t75 27 q42 0 72.5 -27t30.5 -72q0 -47 -30.5 -73.5t-74.5 -26.5q-42 0 -73 26.5t-31 71.5zM614 1290q0 47 31.5 74t75.5 27q42 0 72 -27t30 -72q0 -47 -30 -73.5t-74 -26.5q-42 0 -73.5 26.5t-31.5 71.5z" />
<glyph unicode="&#xfd;" horiz-adv-x="978" d="M25 -401l14 82q6 29 33 26q58 -8 78 -8q84 0 137 38t86 118l51 129l-367 968q-6 17 2 27t27 10h117q41 0 49 -28l266 -764l258 759q6 18 17.5 25.5t33.5 7.5h99q40 0 26 -41l-395 -1067q-68 -184 -159 -258t-255 -74q-44 0 -94 13q-29 7 -24 37zM342 1190q-18 32 10 49 l289 186q18 13 32 12t27 -20l41 -67q11 -13 8.5 -29t-20.5 -23l-313 -161q-31 -15 -49 12z" />
<glyph unicode="&#xfe;" horiz-adv-x="1107" d="M137 -397v1796q0 21 6.5 30.5t24.5 12.5l102 14q41 6 41 -35v-530q51 54 131.5 87.5t163.5 33.5q105 0 187.5 -42t132 -113.5t75 -161t25.5 -191.5q0 -104 -28 -197t-82 -166.5t-140 -117t-194 -43.5q-79 0 -153 29.5t-118 84.5v-491q0 -43 -41 -43h-92q-41 0 -41 43z M311 260q33 -61 103.5 -102t144.5 -41q76 0 133 33.5t89 90.5t47.5 122t15.5 137t-13.5 134t-43 118t-85 88t-131.5 32q-72 0 -147 -37.5t-113 -93.5v-481z" />
<glyph unicode="&#xff;" horiz-adv-x="978" d="M25 -401l14 82q6 29 33 26q58 -8 78 -8q84 0 137 38t86 118l51 129l-367 968q-6 17 2 27t27 10h117q41 0 49 -28l266 -764l258 759q6 18 17.5 25.5t33.5 7.5h99q40 0 26 -41l-395 -1067q-68 -184 -159 -258t-255 -74q-44 0 -94 13q-29 7 -24 37zM236 1292q0 47 31 74 t75 27q42 0 72 -27t30 -72q0 -47 -30 -73.5t-74 -26.5q-42 0 -73 26.5t-31 71.5zM598 1292q0 47 31.5 74t75.5 27q42 0 72 -27t30 -72q0 -47 -30.5 -73.5t-74.5 -26.5q-42 0 -73 26.5t-31 71.5z" />
<glyph unicode="&#x152;" horiz-adv-x="1914" d="M100 700q0 334 166.5 535t435.5 201q96 0 182 -33.5t142 -89.5v51q0 47 43 47h717q41 0 35 -35l-13 -82q-3 -19 -12.5 -25.5t-32.5 -6.5h-546v-449h483q21 0 30 -7.5t9 -25.5v-82q0 -18 -9 -25t-30 -7h-483v-516h569q21 0 30 -7.5t9 -25.5v-84q0 -18 -9 -25.5t-30 -7.5 h-717q-43 0 -43 47v59q-67 -59 -160.5 -92.5t-195.5 -33.5q-273 0 -421.5 189.5t-148.5 530.5zM303 707q0 -267 100 -419.5t283 -152.5q97 0 187.5 37t152.5 102v879q-48 55 -133.5 91t-185.5 36q-79 0 -149.5 -33.5t-121.5 -95.5q-133 -158 -133 -444z" />
<glyph unicode="&#x153;" horiz-adv-x="1757" d="M82 496q0 145 53.5 261t162.5 185.5t257 69.5q252 0 360 -201q133 201 373 201q129 0 221.5 -59.5t136.5 -156t44 -218.5v-52q0 -36 -11.5 -46.5t-50.5 -10.5h-629q5 -152 87 -249t229 -97q155 0 252 43q35 15 45 -14l24 -68q6 -17 1.5 -26.5t-21.5 -18.5 q-115 -59 -324 -59q-265 0 -387 204q-121 -207 -362 -207q-116 0 -205.5 40t-144.5 111t-83 164t-28 204zM262 500q0 -59 8.5 -112.5t29 -105.5t52 -89.5t81 -60.5t112.5 -23q77 0 135.5 33t91 89t48.5 121.5t16 139.5q0 58 -8.5 111.5t-30 105t-53 89t-80.5 60.5t-111 23 q-64 0 -115 -23t-83 -60t-53.5 -87.5t-30.5 -102.5t-9 -108zM1004 588h514v37q0 110 -61.5 181t-176.5 71q-122 0 -193.5 -82t-82.5 -207z" />
<glyph unicode="&#x178;" d="M40 1396.5q6 14.5 30 14.5h116q27 0 39 -7t23 -28l336 -663h2l325 663q9 19 22 27t38 8h88q23 0 29.5 -12t-3.5 -31l-415 -811v-516q0 -41 -39 -41h-111q-22 0 -31.5 9t-9.5 32v512l-434 809q-11 20 -5 34.5zM301 1671q0 47 31.5 74t75.5 27q42 0 72 -27t30 -72 q0 -47 -30 -73.5t-74 -26.5q-42 0 -73.5 26.5t-31.5 71.5zM664 1671q0 47 31 74t75 27q42 0 72 -27t30 -72q0 -47 -30 -73.5t-74 -26.5q-42 0 -73 26.5t-31 71.5z" />
<glyph unicode="&#x2c6;" horiz-adv-x="665" d="M49 1176q-19 22 2 43l215 194q20 17 43 17h37q23 0 41 -15l225 -201q21 -21 2 -43l-30 -32q-23 -23 -45 -4l-211 165l-199 -155q-30 -24 -51 0z" />
<glyph unicode="&#x2dc;" horiz-adv-x="665" d="M-14 1307q26 69 83.5 102t131.5 33q39 0 69.5 -8.5t79.5 -32.5l49 -25q54 -26 97 -26q45 0 73 47q23 41 60 22l41 -20q22 -11 12 -43q-24 -69 -79 -105.5t-124 -36.5q-60 0 -157 46l-48 22q-60 29 -90 29q-36 0 -54 -12.5t-34 -43.5q-18 -35 -53 -18l-41 20 q-31 12 -16 50z" />
<glyph unicode="&#x2000;" horiz-adv-x="936" />
<glyph unicode="&#x2001;" horiz-adv-x="1872" />
<glyph unicode="&#x2002;" horiz-adv-x="936" />
<glyph unicode="&#x2003;" horiz-adv-x="1872" />
<glyph unicode="&#x2004;" horiz-adv-x="624" />
<glyph unicode="&#x2005;" horiz-adv-x="468" />
<glyph unicode="&#x2006;" horiz-adv-x="312" />
<glyph unicode="&#x2007;" horiz-adv-x="312" />
<glyph unicode="&#x2008;" horiz-adv-x="234" />
<glyph unicode="&#x2009;" horiz-adv-x="374" />
<glyph unicode="&#x200a;" horiz-adv-x="104" />
<glyph unicode="&#x2010;" horiz-adv-x="567" d="M84 496v79q0 23 8.5 32t30.5 9h321q22 0 30.5 -9t8.5 -32v-79q0 -22 -8.5 -30.5t-30.5 -8.5h-321q-22 0 -30.5 8.5t-8.5 30.5z" />
<glyph unicode="&#x2011;" horiz-adv-x="567" d="M84 496v79q0 23 8.5 32t30.5 9h321q22 0 30.5 -9t8.5 -32v-79q0 -22 -8.5 -30.5t-30.5 -8.5h-321q-22 0 -30.5 8.5t-8.5 30.5z" />
<glyph unicode="&#x2012;" horiz-adv-x="567" d="M84 496v79q0 23 8.5 32t30.5 9h321q22 0 30.5 -9t8.5 -32v-79q0 -22 -8.5 -30.5t-30.5 -8.5h-321q-22 0 -30.5 8.5t-8.5 30.5z" />
<glyph unicode="&#x2013;" horiz-adv-x="1024" d="M0 496v79q0 23 8.5 32t30.5 9h946q22 0 30.5 -9t8.5 -32v-79q0 -22 -8.5 -30.5t-30.5 -8.5h-946q-22 0 -30.5 8.5t-8.5 30.5z" />
<glyph unicode="&#x2014;" horiz-adv-x="2048" d="M0 496v79q0 23 8.5 32t30.5 9h1970q22 0 30.5 -9t8.5 -32v-79q0 -22 -8.5 -30.5t-30.5 -8.5h-1970q-22 0 -30.5 8.5t-8.5 30.5z" />
<glyph unicode="&#x2018;" horiz-adv-x="391" d="M70 1120q0 90 51.5 181t122.5 133q27 15 41 -2l20 -23q17 -20 -4 -37q-72 -68 -72 -133q0 -27 35 -72.5t35 -76.5q0 -47 -32 -78t-79 -31q-52 0 -85 42.5t-33 96.5z" />
<glyph unicode="&#x2019;" horiz-adv-x="391" d="M86 1014q-17 20 4 37q72 68 72 133q0 27 -35 72.5t-35 76.5q0 47 32 78t79 31q52 0 85.5 -42.5t33.5 -96.5q0 -89 -51.5 -180.5t-123.5 -133.5q-27 -15 -41 2z" />
<glyph unicode="&#x201a;" horiz-adv-x="391" d="M86 -254q-17 20 4 37q72 68 72 133q0 27 -35 73t-35 77q0 47 31.5 77.5t79.5 30.5q52 0 85.5 -42.5t33.5 -96.5q0 -89 -51.5 -180.5t-123.5 -133.5q-26 -15 -41 3z" />
<glyph unicode="&#x201c;" horiz-adv-x="751" d="M70 1120q0 90 51.5 181t122.5 133q27 15 41 -2l20 -23q17 -20 -4 -37q-72 -68 -72 -133q0 -27 35 -72.5t35 -76.5q0 -47 -32 -78t-79 -31q-52 0 -85 42.5t-33 96.5zM430 1120q0 90 51.5 181t122.5 133q27 15 41 -2l21 -23q17 -20 -4 -37q-72 -68 -72 -133 q0 -27 34.5 -72.5t34.5 -76.5q0 -47 -31.5 -78t-78.5 -31q-52 0 -85.5 42.5t-33.5 96.5z" />
<glyph unicode="&#x201d;" horiz-adv-x="751" d="M86 1014q-17 20 4 37q72 68 72 133q0 27 -35 72.5t-35 76.5q0 47 32 78t79 31q52 0 85.5 -42.5t33.5 -96.5q0 -89 -51.5 -180.5t-123.5 -133.5q-27 -15 -41 2zM446 1014q-16 19 5 37q71 67 71 133q0 27 -34.5 72.5t-34.5 76.5q0 47 31.5 78t78.5 31q52 0 85.5 -42.5 t33.5 -96.5q0 -90 -51.5 -181t-122.5 -133q-27 -15 -41 2z" />
<glyph unicode="&#x201e;" horiz-adv-x="751" d="M86 -254q-17 20 4 37q72 68 72 133q0 27 -35 73t-35 77q0 47 31.5 77.5t79.5 30.5q52 0 85.5 -42.5t33.5 -96.5q0 -89 -51.5 -180.5t-123.5 -133.5q-26 -15 -41 3zM446 -254q-16 19 5 37q71 67 71 133q0 27 -34.5 73t-34.5 77q0 47 31.5 77.5t78.5 30.5q52 0 85.5 -42.5 t33.5 -96.5q0 -90 -51.5 -181t-122.5 -133q-26 -15 -41 3z" />
<glyph unicode="&#x2022;" horiz-adv-x="1044" d="M182 545q0 152 101 238.5t243 86.5q88 0 163.5 -35.5t124 -110t48.5 -173.5q0 -152 -100 -239t-242 -87q-88 0 -164 36t-125 110.5t-49 173.5z" />
<glyph unicode="&#x2026;" horiz-adv-x="1253" d="M102 90q0 53 35 83t84 30q47 0 82 -30t35 -81q0 -53 -35 -82.5t-84 -29.5q-48 0 -82.5 29.5t-34.5 80.5zM520 90q0 53 35 83t84 30q47 0 82 -30t35 -81q0 -53 -35 -82.5t-84 -29.5q-48 0 -82.5 29.5t-34.5 80.5zM938 90q0 53 35 83t84 30q47 0 82 -30t35 -81 q0 -53 -35 -82.5t-84 -29.5q-48 0 -82.5 29.5t-34.5 80.5z" />
<glyph unicode="&#x202f;" horiz-adv-x="374" />
<glyph unicode="&#x2039;" horiz-adv-x="587" d="M104 463q0 15 15 41l221 291q17 27 43 12l55 -31q24 -15 8 -41l-170 -266l168 -276q18 -29 -8 -43l-49 -29q-27 -15 -45 8l-225 301q-13 20 -13 33z" />
<glyph unicode="&#x203a;" horiz-adv-x="589" d="M143 193l170 266l-168 276q-18 28 9 43l49 29q27 15 45 -8l225 -301q12 -18 12 -35q0 -22 -14 -39l-221 -293q-19 -25 -43 -12l-55 33q-25 16 -9 41z" />
<glyph unicode="&#x205f;" horiz-adv-x="468" />
<glyph unicode="&#x20ac;" d="M66 541v49q0 19 6.5 26t27.5 7h95q-2 27 -2 82v43h-93q-21 0 -27.5 6.5t-6.5 25.5v49q0 19 6.5 26t27.5 7h105q23 256 176 415t379 159q162 0 305 -76q20 -10 23.5 -21t-5.5 -30l-36 -70q-14 -28 -46 -14q-121 57 -221 57q-144 0 -241 -94q-119 -119 -131 -326h448 q33 0 25 -28l-17 -60q-5 -14 -13 -20t-26 -6h-430v-27q0 -36 4 -98h412q34 0 25 -29l-17 -59q-9 -27 -39 -27h-366q20 -177 116 -279q90 -96 234 -96q104 0 242 57q20 8 32 4.5t19 -22.5l24 -59q8 -25 3.5 -36t-25.5 -22q-140 -75 -316 -75q-226 0 -365.5 142.5 t-170.5 385.5h-107q-21 0 -27.5 7t-6.5 26z" />
<glyph unicode="&#x2122;" horiz-adv-x="1345" d="M86 1350v41q0 20 23 20h397q12 0 16.5 -4t3.5 -16l-6 -41q-3 -21 -26 -21h-140v-469q0 -24 -24 -24h-56q-24 0 -24 24v469h-141q-23 0 -23 21zM602 860l14 526q0 25 23 25h47q25 0 33 -22l184 -420l174 420q8 22 33 22h43q23 0 23 -25l18 -526q0 -24 -25 -24h-53 q-24 0 -24 24l-7 359l-143 -365q-8 -18 -27 -18h-28q-19 0 -27 18l-158 367l-4 -361q0 -24 -24 -24h-47q-25 0 -25 24z" />
<glyph unicode="&#x25fc;" horiz-adv-x="993" d="M0 0v993h993v-993h-993z" />
</font>
</defs>
</svg>
